solid Created by Gmsh
facet normal -3.55271e-16 -1 3.55271e-16
  outer loop
    vertex 7.5 8.64 2.5
    vertex 12.5 8.64 2.5
    vertex 10 8.64 5
  endloop
endfacet
facet normal -3.55271e-16 -1 -3.55271e-16
  outer loop
    vertex 2.5 8.64 2.5
    vertex 7.5 8.64 2.5
    vertex 5 8.64 5
  endloop
endfacet
facet normal 0 -1 0
  outer loop
    vertex -2.5 8.64 2.5
    vertex 2.5 8.64 2.5
    vertex 0 8.64 5
  endloop
endfacet
facet normal -3.55271e-16 -1 -3.55271e-16
  outer loop
    vertex -7.5 8.64 2.5
    vertex -2.5 8.64 2.5
    vertex -5 8.64 5
  endloop
endfacet
facet normal 0 -1 0
  outer loop
    vertex -7.5 8.64 2.5
    vertex -10 8.64 5
    vertex -12.5 8.64 2.5
  endloop
endfacet
facet normal -3.55271e-16 -1 -3.55271e-16
  outer loop
    vertex 10 8.64 0
    vertex 12.5 8.64 2.5
    vertex 7.5 8.64 2.5
  endloop
endfacet
facet normal -3.55271e-16 -1 3.55271e-16
  outer loop
    vertex 5 8.64 0
    vertex 7.5 8.64 2.5
    vertex 2.5 8.64 2.5
  endloop
endfacet
facet normal 0 -1 0
  outer loop
    vertex 0 8.64 0
    vertex 2.5 8.64 2.5
    vertex -2.5 8.64 2.5
  endloop
endfacet
facet normal -3.55271e-16 -1 3.55271e-16
  outer loop
    vertex -5 8.64 0
    vertex -2.5 8.64 2.5
    vertex -7.5 8.64 2.5
  endloop
endfacet
facet normal 0 -1 0
  outer loop
    vertex -10 8.64 0
    vertex -7.5 8.64 2.5
    vertex -12.5 8.64 2.5
  endloop
endfacet
facet normal 0 -1 -0
  outer loop
    vertex 15 8.64 5
    vertex 12.5 8.64 2.5
    vertex 15 8.64 0
  endloop
endfacet
facet normal -3.55271e-16 -1 3.55271e-16
  outer loop
    vertex 15 8.64 5
    vertex 10 8.64 5
    vertex 12.5 8.64 2.5
  endloop
endfacet
facet normal -3.55271e-16 -1 -3.55271e-16
  outer loop
    vertex 15 8.64 0
    vertex 12.5 8.64 2.5
    vertex 10 8.64 0
  endloop
endfacet
facet normal -7.10543e-16 -1 -0
  outer loop
    vertex -15 8.64 5
    vertex -15 8.64 0
    vertex -12.5 8.64 2.5
  endloop
endfacet
facet normal -3.55271e-16 -1 3.55271e-16
  outer loop
    vertex -15 8.64 5
    vertex -12.5 8.64 2.5
    vertex -10 8.64 5
  endloop
endfacet
facet normal -3.55271e-16 -1 -3.55271e-16
  outer loop
    vertex -15 8.64 0
    vertex -10 8.64 0
    vertex -12.5 8.64 2.5
  endloop
endfacet
facet normal -0 -1 0
  outer loop
    vertex 10 8.64 5
    vertex 5 8.64 5
    vertex 7.5 8.64 2.5
  endloop
endfacet
facet normal -3.55271e-16 -1 -3.55271e-16
  outer loop
    vertex 5 8.64 5
    vertex 0 8.64 5
    vertex 2.5 8.64 2.5
  endloop
endfacet
facet normal -0 -1 0
  outer loop
    vertex 0 8.64 5
    vertex -5 8.64 5
    vertex -2.5 8.64 2.5
  endloop
endfacet
facet normal -3.55271e-16 -1 -3.55271e-16
  outer loop
    vertex -5 8.64 5
    vertex -10 8.64 5
    vertex -7.5 8.64 2.5
  endloop
endfacet
facet normal 0 -1 0
  outer loop
    vertex 10 8.64 0
    vertex 7.5 8.64 2.5
    vertex 5 8.64 0
  endloop
endfacet
facet normal -3.55271e-16 -1 3.55271e-16
  outer loop
    vertex 5 8.64 0
    vertex 2.5 8.64 2.5
    vertex 0 8.64 0
  endloop
endfacet
facet normal 0 -1 0
  outer loop
    vertex 0 8.64 0
    vertex -2.5 8.64 2.5
    vertex -5 8.64 0
  endloop
endfacet
facet normal -3.55271e-16 -1 3.55271e-16
  outer loop
    vertex -5 8.64 0
    vertex -7.5 8.64 2.5
    vertex -10 8.64 0
  endloop
endfacet
facet normal 0 1 0
  outer loop
    vertex -7.5 50.64 2.5
    vertex -12.5 50.64 2.5
    vertex -10 50.64 5
  endloop
endfacet
facet normal 0 1 -0
  outer loop
    vertex -10 50.64 0
    vertex -12.5 50.64 2.5
    vertex -7.5 50.64 2.5
  endloop
endfacet
facet normal 0 1 0
  outer loop
    vertex 7.5 50.64 2.5
    vertex 10 50.64 5
    vertex 12.5 50.64 2.5
  endloop
endfacet
facet normal 0 1 0
  outer loop
    vertex 2.5 50.64 2.5
    vertex 5 50.64 5
    vertex 7.5 50.64 2.5
  endloop
endfacet
facet normal 1.42109e-15 1 1.42109e-15
  outer loop
    vertex -2.5 50.64 2.5
    vertex 8.88178e-15 50.64 5
    vertex 2.5 50.64 2.5
  endloop
endfacet
facet normal 0 1 0
  outer loop
    vertex -2.5 50.64 2.5
    vertex -7.5 50.64 2.5
    vertex -5 50.64 5
  endloop
endfacet
facet normal 0 1 -0
  outer loop
    vertex 10 50.64 0
    vertex 7.5 50.64 2.5
    vertex 12.5 50.64 2.5
  endloop
endfacet
facet normal 0 1 -0
  outer loop
    vertex 5 50.64 0
    vertex 2.5 50.64 2.5
    vertex 7.5 50.64 2.5
  endloop
endfacet
facet normal 1.42109e-15 1 -1.42109e-15
  outer loop
    vertex 8.88178e-15 50.64 0
    vertex -2.5 50.64 2.5
    vertex 2.5 50.64 2.5
  endloop
endfacet
facet normal 0 1 -0
  outer loop
    vertex -5 50.64 0
    vertex -7.5 50.64 2.5
    vertex -2.5 50.64 2.5
  endloop
endfacet
facet normal 0 1 0
  outer loop
    vertex -15 50.64 5
    vertex -12.5 50.64 2.5
    vertex -15 50.64 0
  endloop
endfacet
facet normal -0 1 0
  outer loop
    vertex -15 50.64 5
    vertex -10 50.64 5
    vertex -12.5 50.64 2.5
  endloop
endfacet
facet normal 0 1 0
  outer loop
    vertex -15 50.64 0
    vertex -12.5 50.64 2.5
    vertex -10 50.64 0
  endloop
endfacet
facet normal 0 1 0
  outer loop
    vertex -5 50.64 5
    vertex -7.5 50.64 2.5
    vertex -10 50.64 5
  endloop
endfacet
facet normal 0 1 0
  outer loop
    vertex -5 50.64 0
    vertex -10 50.64 0
    vertex -7.5 50.64 2.5
  endloop
endfacet
facet normal 0 1 0
  outer loop
    vertex 15 50.64 5
    vertex 15 50.64 0
    vertex 12.5 50.64 2.5
  endloop
endfacet
facet normal 0 1 0
  outer loop
    vertex 15 50.64 5
    vertex 12.5 50.64 2.5
    vertex 10 50.64 5
  endloop
endfacet
facet normal 0 1 0
  outer loop
    vertex 15 50.64 0
    vertex 10 50.64 0
    vertex 12.5 50.64 2.5
  endloop
endfacet
facet normal 0 1 0
  outer loop
    vertex 10 50.64 5
    vertex 7.5 50.64 2.5
    vertex 5 50.64 5
  endloop
endfacet
facet normal 0 1 0
  outer loop
    vertex 5 50.64 5
    vertex 2.5 50.64 2.5
    vertex 8.88178e-15 50.64 5
  endloop
endfacet
facet normal 1.42109e-15 1 1.42109e-15
  outer loop
    vertex 8.88178e-15 50.64 5
    vertex -2.5 50.64 2.5
    vertex -5 50.64 5
  endloop
endfacet
facet normal 0 1 0
  outer loop
    vertex 10 50.64 0
    vertex 5 50.64 0
    vertex 7.5 50.64 2.5
  endloop
endfacet
facet normal 0 1 0
  outer loop
    vertex 5 50.64 0
    vertex 8.88178e-15 50.64 0
    vertex 2.5 50.64 2.5
  endloop
endfacet
facet normal 1.42109e-15 1 -1.42109e-15
  outer loop
    vertex 8.88178e-15 50.64 0
    vertex -5 50.64 0
    vertex -2.5 50.64 2.5
  endloop
endfacet
facet normal 1 0 0
  outer loop
    vertex 15 8.64 5
    vertex 15 8.64 0
    vertex 15 11.2163 2.5
  endloop
endfacet
facet normal 1 0 0
  outer loop
    vertex 15 50.64 5
    vertex 15 48.0637 2.5
    vertex 15 50.64 0
  endloop
endfacet
facet normal 1 0 -0
  outer loop
    vertex 15 31.9733 0
    vertex 15 34.3067 2.5
    vertex 15 29.64 2.5
  endloop
endfacet
facet normal 1 0 -0
  outer loop
    vertex 15 41.3067 0
    vertex 15 43.64 2.5
    vertex 15 38.9733 2.5
  endloop
endfacet
facet normal 1 0 0
  outer loop
    vertex 15 31.9733 5
    vertex 15 29.64 2.5
    vertex 15 34.3067 2.5
  endloop
endfacet
facet normal 1 0 0
  outer loop
    vertex 15 41.3067 5
    vertex 15 38.9733 2.5
    vertex 15 43.64 2.5
  endloop
endfacet
facet normal 1 -3.80648e-16 3.55271e-16
  outer loop
    vertex 15 22.64 0
    vertex 15 24.9733 2.5
    vertex 15 20.3067 2.5
  endloop
endfacet
facet normal 1 0 0
  outer loop
    vertex 15 17.9733 5
    vertex 15 15.64 2.5
    vertex 15 20.3067 2.5
  endloop
endfacet
facet normal 1 -3.80648e-16 -3.55271e-16
  outer loop
    vertex 15 22.64 5
    vertex 15 20.3067 2.5
    vertex 15 24.9733 2.5
  endloop
endfacet
facet normal 1 0 -0
  outer loop
    vertex 15 17.9733 0
    vertex 15 20.3067 2.5
    vertex 15 15.64 2.5
  endloop
endfacet
facet normal 1 -3.80648e-16 -3.92263e-16
  outer loop
    vertex 15 8.64 5
    vertex 15 11.2163 2.5
    vertex 15 13.3067 5
  endloop
endfacet
facet normal 1 -3.80648e-16 3.92263e-16
  outer loop
    vertex 15 8.64 0
    vertex 15 13.3067 0
    vertex 15 11.2163 2.5
  endloop
endfacet
facet normal 1 -3.80648e-16 3.55271e-16
  outer loop
    vertex 15 17.9733 0
    vertex 15 22.64 0
    vertex 15 20.3067 2.5
  endloop
endfacet
facet normal 1 -3.80648e-16 -3.55271e-16
  outer loop
    vertex 15 17.9733 5
    vertex 15 20.3067 2.5
    vertex 15 22.64 5
  endloop
endfacet
facet normal 1 0 0
  outer loop
    vertex 15 31.9733 0
    vertex 15 36.64 0
    vertex 15 34.3067 2.5
  endloop
endfacet
facet normal 1 -0 0
  outer loop
    vertex 15 31.9733 5
    vertex 15 34.3067 2.5
    vertex 15 36.64 5
  endloop
endfacet
facet normal 1 0 0
  outer loop
    vertex 15 13.3067 0
    vertex 15 17.9733 0
    vertex 15 15.64 2.5
  endloop
endfacet
facet normal 1 -0 0
  outer loop
    vertex 15 13.3067 5
    vertex 15 15.64 2.5
    vertex 15 17.9733 5
  endloop
endfacet
facet normal 1 -4.01553e-16 -3.74783e-16
  outer loop
    vertex 15 13.3067 5
    vertex 15 11.2163 2.5
    vertex 15 15.64 2.5
  endloop
endfacet
facet normal 1 0 0
  outer loop
    vertex 15 50.64 5
    vertex 15 45.9733 5
    vertex 15 48.0637 2.5
  endloop
endfacet
facet normal 1 0 0
  outer loop
    vertex 15 50.64 0
    vertex 15 48.0637 2.5
    vertex 15 45.9733 0
  endloop
endfacet
facet normal 1 -4.01553e-16 3.74783e-16
  outer loop
    vertex 15 13.3067 0
    vertex 15 15.64 2.5
    vertex 15 11.2163 2.5
  endloop
endfacet
facet normal 1 -3.80648e-16 -3.55271e-16
  outer loop
    vertex 15 36.64 0
    vertex 15 41.3067 0
    vertex 15 38.9733 2.5
  endloop
endfacet
facet normal 1 -3.80648e-16 3.55271e-16
  outer loop
    vertex 15 41.3067 0
    vertex 15 45.9733 0
    vertex 15 43.64 2.5
  endloop
endfacet
facet normal 1 -4.01553e-16 3.3576e-16
  outer loop
    vertex 15 45.9733 0
    vertex 15 48.0637 2.5
    vertex 15 43.64 2.5
  endloop
endfacet
facet normal 1 -3.80648e-16 3.55271e-16
  outer loop
    vertex 15 36.64 5
    vertex 15 38.9733 2.5
    vertex 15 41.3067 5
  endloop
endfacet
facet normal 1 -3.80648e-16 -3.55271e-16
  outer loop
    vertex 15 41.3067 5
    vertex 15 43.64 2.5
    vertex 15 45.9733 5
  endloop
endfacet
facet normal 1 -4.01553e-16 -3.3576e-16
  outer loop
    vertex 15 45.9733 5
    vertex 15 43.64 2.5
    vertex 15 48.0637 2.5
  endloop
endfacet
facet normal 1 0 0
  outer loop
    vertex 15 22.64 0
    vertex 15 27.3067 0
    vertex 15 24.9733 2.5
  endloop
endfacet
facet normal 1 -3.80648e-16 -3.55271e-16
  outer loop
    vertex 15 27.3067 0
    vertex 15 31.9733 0
    vertex 15 29.64 2.5
  endloop
endfacet
facet normal 1 -0 0
  outer loop
    vertex 15 22.64 5
    vertex 15 24.9733 2.5
    vertex 15 27.3067 5
  endloop
endfacet
facet normal 1 -3.80648e-16 3.55271e-16
  outer loop
    vertex 15 27.3067 5
    vertex 15 29.64 2.5
    vertex 15 31.9733 5
  endloop
endfacet
facet normal 1 -3.80648e-16 -3.55271e-16
  outer loop
    vertex 15 27.3067 0
    vertex 15 29.64 2.5
    vertex 15 24.9733 2.5
  endloop
endfacet
facet normal 1 -3.80648e-16 3.55271e-16
  outer loop
    vertex 15 27.3067 5
    vertex 15 24.9733 2.5
    vertex 15 29.64 2.5
  endloop
endfacet
facet normal 1 -3.80648e-16 -3.55271e-16
  outer loop
    vertex 15 36.64 0
    vertex 15 38.9733 2.5
    vertex 15 34.3067 2.5
  endloop
endfacet
facet normal 1 -3.80648e-16 3.55271e-16
  outer loop
    vertex 15 36.64 5
    vertex 15 34.3067 2.5
    vertex 15 38.9733 2.5
  endloop
endfacet
facet normal -1 0 0
  outer loop
    vertex -15 8.64 5
    vertex -15 11.2163 2.5
    vertex -15 8.64 0
  endloop
endfacet
facet normal -1 6.89503e-16 0
  outer loop
    vertex -15 50.64 5
    vertex -15 50.64 0
    vertex -15 48.0637 2.5
  endloop
endfacet
facet normal -1 0 0
  outer loop
    vertex -15 41.3067 0
    vertex -15 38.9733 2.5
    vertex -15 43.64 2.5
  endloop
endfacet
facet normal -1 0 -0
  outer loop
    vertex -15 41.3067 5
    vertex -15 43.64 2.5
    vertex -15 38.9733 2.5
  endloop
endfacet
facet normal -1 0 0
  outer loop
    vertex -15 17.9733 0
    vertex -15 15.64 2.5
    vertex -15 20.3067 2.5
  endloop
endfacet
facet normal -1 3.80648e-16 -3.55271e-16
  outer loop
    vertex -15 22.64 0
    vertex -15 20.3067 2.5
    vertex -15 24.9733 2.5
  endloop
endfacet
facet normal -1 0 -0
  outer loop
    vertex -15 17.9733 5
    vertex -15 20.3067 2.5
    vertex -15 15.64 2.5
  endloop
endfacet
facet normal -1 3.80648e-16 3.55271e-16
  outer loop
    vertex -15 22.64 5
    vertex -15 24.9733 2.5
    vertex -15 20.3067 2.5
  endloop
endfacet
facet normal -1 0 0
  outer loop
    vertex -15 31.9733 0
    vertex -15 29.64 2.5
    vertex -15 34.3067 2.5
  endloop
endfacet
facet normal -1 0 -0
  outer loop
    vertex -15 31.9733 5
    vertex -15 34.3067 2.5
    vertex -15 29.64 2.5
  endloop
endfacet
facet normal -1 3.80648e-16 3.92263e-16
  outer loop
    vertex -15 8.64 5
    vertex -15 13.3067 5
    vertex -15 11.2163 2.5
  endloop
endfacet
facet normal -1 3.80648e-16 -3.92263e-16
  outer loop
    vertex -15 8.64 0
    vertex -15 11.2163 2.5
    vertex -15 13.3067 0
  endloop
endfacet
facet normal -1 3.80648e-16 -3.55271e-16
  outer loop
    vertex -15 17.9733 0
    vertex -15 20.3067 2.5
    vertex -15 22.64 0
  endloop
endfacet
facet normal -1 3.80648e-16 3.55271e-16
  outer loop
    vertex -15 17.9733 5
    vertex -15 22.64 5
    vertex -15 20.3067 2.5
  endloop
endfacet
facet normal -1 0 0
  outer loop
    vertex -15 31.9733 0
    vertex -15 34.3067 2.5
    vertex -15 36.64 0
  endloop
endfacet
facet normal -1 4.01553e-16 3.74783e-16
  outer loop
    vertex -15 13.3067 5
    vertex -15 15.64 2.5
    vertex -15 11.2163 2.5
  endloop
endfacet
facet normal -1 0 0
  outer loop
    vertex -15 31.9733 5
    vertex -15 36.64 5
    vertex -15 34.3067 2.5
  endloop
endfacet
facet normal -1 0 0
  outer loop
    vertex -15 13.3067 0
    vertex -15 15.64 2.5
    vertex -15 17.9733 0
  endloop
endfacet
facet normal -1 0 0
  outer loop
    vertex -15 13.3067 5
    vertex -15 17.9733 5
    vertex -15 15.64 2.5
  endloop
endfacet
facet normal -1 3.80648e-16 3.18279e-16
  outer loop
    vertex -15 50.64 5
    vertex -15 48.0637 2.5
    vertex -15 45.9733 5
  endloop
endfacet
facet normal -1 3.80648e-16 -3.18279e-16
  outer loop
    vertex -15 50.64 0
    vertex -15 45.9733 0
    vertex -15 48.0637 2.5
  endloop
endfacet
facet normal -1 4.01553e-16 -3.74783e-16
  outer loop
    vertex -15 13.3067 0
    vertex -15 11.2163 2.5
    vertex -15 15.64 2.5
  endloop
endfacet
facet normal -1 3.80648e-16 3.55271e-16
  outer loop
    vertex -15 36.64 0
    vertex -15 38.9733 2.5
    vertex -15 41.3067 0
  endloop
endfacet
facet normal -1 3.80648e-16 -3.55271e-16
  outer loop
    vertex -15 41.3067 0
    vertex -15 43.64 2.5
    vertex -15 45.9733 0
  endloop
endfacet
facet normal -1 4.01553e-16 -3.3576e-16
  outer loop
    vertex -15 45.9733 0
    vertex -15 43.64 2.5
    vertex -15 48.0637 2.5
  endloop
endfacet
facet normal -1 3.80648e-16 -3.55271e-16
  outer loop
    vertex -15 36.64 5
    vertex -15 41.3067 5
    vertex -15 38.9733 2.5
  endloop
endfacet
facet normal -1 3.80648e-16 3.55271e-16
  outer loop
    vertex -15 41.3067 5
    vertex -15 45.9733 5
    vertex -15 43.64 2.5
  endloop
endfacet
facet normal -1 4.01553e-16 3.3576e-16
  outer loop
    vertex -15 45.9733 5
    vertex -15 48.0637 2.5
    vertex -15 43.64 2.5
  endloop
endfacet
facet normal -1 0 0
  outer loop
    vertex -15 22.64 0
    vertex -15 24.9733 2.5
    vertex -15 27.3067 0
  endloop
endfacet
facet normal -1 3.80648e-16 3.55271e-16
  outer loop
    vertex -15 27.3067 0
    vertex -15 29.64 2.5
    vertex -15 31.9733 0
  endloop
endfacet
facet normal -1 0 0
  outer loop
    vertex -15 22.64 5
    vertex -15 27.3067 5
    vertex -15 24.9733 2.5
  endloop
endfacet
facet normal -1 3.80648e-16 -3.55271e-16
  outer loop
    vertex -15 27.3067 5
    vertex -15 31.9733 5
    vertex -15 29.64 2.5
  endloop
endfacet
facet normal -1 3.80648e-16 3.55271e-16
  outer loop
    vertex -15 27.3067 0
    vertex -15 24.9733 2.5
    vertex -15 29.64 2.5
  endloop
endfacet
facet normal -1 3.80648e-16 3.55271e-16
  outer loop
    vertex -15 36.64 0
    vertex -15 34.3067 2.5
    vertex -15 38.9733 2.5
  endloop
endfacet
facet normal -1 3.80648e-16 -3.55271e-16
  outer loop
    vertex -15 27.3067 5
    vertex -15 29.64 2.5
    vertex -15 24.9733 2.5
  endloop
endfacet
facet normal -1 3.80648e-16 -3.55271e-16
  outer loop
    vertex -15 36.64 5
    vertex -15 38.9733 2.5
    vertex -15 34.3067 2.5
  endloop
endfacet
facet normal 0 0 -1
  outer loop
    vertex 3.55271e-15 29.64 0
    vertex 2.89018 32.3605 0
    vertex 2.94612 27.1429 0
  endloop
endfacet
facet normal 0 0 -1
  outer loop
    vertex -15 22.64 0
    vertex -15 27.3067 0
    vertex -10.0063 24.9844 0
  endloop
endfacet
facet normal 0 0 -1
  outer loop
    vertex -15 31.9733 0
    vertex -15 36.64 0
    vertex -10.0063 34.2817 0
  endloop
endfacet
facet normal 0 0 -1
  outer loop
    vertex 2.94612 27.1429 0
    vertex 2.89018 32.3605 0
    vertex 6.43116 29.322 0
  endloop
endfacet
facet normal 0 0 -1
  outer loop
    vertex -15 27.3067 0
    vertex -11.5481 29.631 0
    vertex -10.0063 24.9844 0
  endloop
endfacet
facet normal 0 0 -1
  outer loop
    vertex -15 31.9733 0
    vertex -10.0063 34.2817 0
    vertex -11.5481 29.631 0
  endloop
endfacet
facet normal 0 0 -1
  outer loop
    vertex -5.70228 20.5854 0
    vertex -4.84645 25.6287 0
    vertex -0.304089 23.3301 0
  endloop
endfacet
facet normal 0 0 -1
  outer loop
    vertex -5.70228 38.6946 0
    vertex -0.389971 35.717 0
    vertex -4.84645 33.6513 0
  endloop
endfacet
facet normal 0 0 -1
  outer loop
    vertex -5.70228 38.6946 0
    vertex -11.0311 39.7084 0
    vertex -8.15793 43.6877 0
  endloop
endfacet
facet normal 0 0 -1
  outer loop
    vertex -5.70228 20.5854 0
    vertex -8.15793 15.5923 0
    vertex -11.0311 19.5692 0
  endloop
endfacet
facet normal 0 0 -1
  outer loop
    vertex -5.70228 38.6946 0
    vertex -8.15793 43.6877 0
    vertex -4.2551 42.578 0
  endloop
endfacet
facet normal 0 -0 -1
  outer loop
    vertex -5.70228 20.5854 0
    vertex -4.24139 16.6906 0
    vertex -8.15793 15.5923 0
  endloop
endfacet
facet normal -0 0 -1
  outer loop
    vertex 15 45.9733 0
    vertex 11.2745 41.4244 0
    vertex 11.1755 46.8389 0
  endloop
endfacet
facet normal 0 0 -1
  outer loop
    vertex -15 36.64 0
    vertex -11.0311 39.7084 0
    vertex -10.0063 34.2817 0
  endloop
endfacet
facet normal 0 0 -1
  outer loop
    vertex -15 22.64 0
    vertex -10.0063 24.9844 0
    vertex -11.0311 19.5692 0
  endloop
endfacet
facet normal 0 0 -1
  outer loop
    vertex 0 8.64 0
    vertex -3.77801 12.6835 0
    vertex 0.970716 12.4933 0
  endloop
endfacet
facet normal 0 -0 -1
  outer loop
    vertex 8.88178e-15 50.64 0
    vertex 0.969539 46.7791 0
    vertex -3.77801 46.5965 0
  endloop
endfacet
facet normal 0 0 -1
  outer loop
    vertex 0 8.64 0
    vertex -5 8.64 0
    vertex -3.77801 12.6835 0
  endloop
endfacet
facet normal -0 0 -1
  outer loop
    vertex 8.88178e-15 50.64 0
    vertex -3.77801 46.5965 0
    vertex -5 50.64 0
  endloop
endfacet
facet normal -0 0 -1
  outer loop
    vertex 3.36867 19.8765 0
    vertex -1.06444 18.7947 0
    vertex -0.304089 23.3301 0
  endloop
endfacet
facet normal -0 0 -1
  outer loop
    vertex 2.64806 38.9711 0
    vertex -0.389971 35.717 0
    vertex -1.19886 40.3744 0
  endloop
endfacet
facet normal 0 -0 -1
  outer loop
    vertex 2.64806 38.9711 0
    vertex 5.29693 35.9786 0
    vertex -0.389971 35.717 0
  endloop
endfacet
facet normal 0 0 -1
  outer loop
    vertex 15 36.64 0
    vertex 9.56064 37.3383 0
    vertex 11.2745 41.4244 0
  endloop
endfacet
facet normal 0 0 -1
  outer loop
    vertex -5.70228 20.5854 0
    vertex -10.0063 24.9844 0
    vertex -4.84645 25.6287 0
  endloop
endfacet
facet normal 0 -0 -1
  outer loop
    vertex -5.70228 38.6946 0
    vertex -4.84645 33.6513 0
    vertex -10.0063 34.2817 0
  endloop
endfacet
facet normal -0 0 -1
  outer loop
    vertex -7.39872 29.5912 0
    vertex -10.0063 24.9844 0
    vertex -11.5481 29.631 0
  endloop
endfacet
facet normal 0 0 -1
  outer loop
    vertex -7.39872 29.5912 0
    vertex -11.5481 29.631 0
    vertex -10.0063 34.2817 0
  endloop
endfacet
facet normal 0 0 -1
  outer loop
    vertex 3.36867 19.8765 0
    vertex -0.304089 23.3301 0
    vertex 5.24368 23.1097 0
  endloop
endfacet
facet normal 0 0 -1
  outer loop
    vertex 15 41.3067 0
    vertex 11.2745 41.4244 0
    vertex 15 45.9733 0
  endloop
endfacet
facet normal 0 -0 -1
  outer loop
    vertex 4.79263 45.6021 0
    vertex 6.28608 40.916 0
    vertex 2.11472 42.6189 0
  endloop
endfacet
facet normal 0 0 -1
  outer loop
    vertex 15 17.9733 0
    vertex 10.2153 20.5231 0
    vertex 15 22.64 0
  endloop
endfacet
facet normal 0 -0 -1
  outer loop
    vertex -7.39872 29.5912 0
    vertex -4.84645 25.6287 0
    vertex -10.0063 24.9844 0
  endloop
endfacet
facet normal 0 0 -1
  outer loop
    vertex -7.39872 29.5912 0
    vertex -10.0063 34.2817 0
    vertex -4.84645 33.6513 0
  endloop
endfacet
facet normal 0 0 -1
  outer loop
    vertex -5.70228 38.6946 0
    vertex -1.19886 40.3744 0
    vertex -0.389971 35.717 0
  endloop
endfacet
facet normal 0 0 -1
  outer loop
    vertex -5.70228 20.5854 0
    vertex -0.304089 23.3301 0
    vertex -1.06444 18.7947 0
  endloop
endfacet
facet normal 0 0 -1
  outer loop
    vertex 15 36.64 0
    vertex 11.2745 41.4244 0
    vertex 15 41.3067 0
  endloop
endfacet
facet normal -0 0 -1
  outer loop
    vertex 8.27829 44.5186 0
    vertex 6.28608 40.916 0
    vertex 4.79263 45.6021 0
  endloop
endfacet
facet normal -0 0 -1
  outer loop
    vertex -5.70228 20.5854 0
    vertex -11.0311 19.5692 0
    vertex -10.0063 24.9844 0
  endloop
endfacet
facet normal -0 0 -1
  outer loop
    vertex -5.70228 38.6946 0
    vertex -10.0063 34.2817 0
    vertex -11.0311 39.7084 0
  endloop
endfacet
facet normal 0 0 -1
  outer loop
    vertex 2.64806 38.9711 0
    vertex 2.11472 42.6189 0
    vertex 6.28608 40.916 0
  endloop
endfacet
facet normal 0 0 -1
  outer loop
    vertex -15 36.64 0
    vertex -15 41.3067 0
    vertex -11.0311 39.7084 0
  endloop
endfacet
facet normal 0 0 -1
  outer loop
    vertex -15 17.9733 0
    vertex -15 22.64 0
    vertex -11.0311 19.5692 0
  endloop
endfacet
facet normal 0 -0 -1
  outer loop
    vertex 8.10748 25.4899 0
    vertex 10.2153 20.5231 0
    vertex 5.24368 23.1097 0
  endloop
endfacet
facet normal 0 0 -1
  outer loop
    vertex 8.27829 44.5186 0
    vertex 11.1755 46.8389 0
    vertex 11.2745 41.4244 0
  endloop
endfacet
facet normal -0 0 -1
  outer loop
    vertex 15 36.64 0
    vertex 11.5967 33.6987 0
    vertex 9.56064 37.3383 0
  endloop
endfacet
facet normal 0 0 -1
  outer loop
    vertex 4.80251 13.6146 0
    vertex 2.24717 16.475 0
    vertex 7.07176 17.9999 0
  endloop
endfacet
facet normal -0 0 -1
  outer loop
    vertex 10.2153 20.5231 0
    vertex 7.07176 17.9999 0
    vertex 5.24368 23.1097 0
  endloop
endfacet
facet normal 0 0 -1
  outer loop
    vertex 8.10748 25.4899 0
    vertex 11.9293 24.9733 0
    vertex 10.2153 20.5231 0
  endloop
endfacet
facet normal 0 0 -1
  outer loop
    vertex 7.6632 33.13 0
    vertex 9.56064 37.3383 0
    vertex 11.5967 33.6987 0
  endloop
endfacet
facet normal 0 0 -1
  outer loop
    vertex -0.389971 35.717 0
    vertex 5.29693 35.9786 0
    vertex 2.89018 32.3605 0
  endloop
endfacet
facet normal -0 0 -1
  outer loop
    vertex 15 22.64 0
    vertex 10.2153 20.5231 0
    vertex 11.9293 24.9733 0
  endloop
endfacet
facet normal 0 0 -1
  outer loop
    vertex -0.304089 23.3301 0
    vertex 2.94612 27.1429 0
    vertex 5.24368 23.1097 0
  endloop
endfacet
facet normal 0 0 -1
  outer loop
    vertex 7.6632 33.13 0
    vertex 5.29693 35.9786 0
    vertex 9.56064 37.3383 0
  endloop
endfacet
facet normal -0 0 -1
  outer loop
    vertex 8.60813 14.5875 0
    vertex 4.80251 13.6146 0
    vertex 7.07176 17.9999 0
  endloop
endfacet
facet normal -0 0 -1
  outer loop
    vertex 15 17.9733 0
    vertex 11.7662 15.8855 0
    vertex 10.2153 20.5231 0
  endloop
endfacet
facet normal 0 -0 -1
  outer loop
    vertex 10.2153 20.5231 0
    vertex 11.7662 15.8855 0
    vertex 7.07176 17.9999 0
  endloop
endfacet
facet normal 0 0 -1
  outer loop
    vertex 7.07176 17.9999 0
    vertex 11.7662 15.8855 0
    vertex 8.60813 14.5875 0
  endloop
endfacet
facet normal 0 0 -1
  outer loop
    vertex 15 27.3067 0
    vertex 10.7595 29.4116 0
    vertex 15 31.9733 0
  endloop
endfacet
facet normal 0 0 -1
  outer loop
    vertex 5 50.64 0
    vertex 4.79263 45.6021 0
    vertex 0.969539 46.7791 0
  endloop
endfacet
facet normal 0 0 -1
  outer loop
    vertex 5 8.64 0
    vertex 0.970716 12.4933 0
    vertex 4.80251 13.6146 0
  endloop
endfacet
facet normal 0 0 -1
  outer loop
    vertex 3.36867 19.8765 0
    vertex 2.24717 16.475 0
    vertex -1.06444 18.7947 0
  endloop
endfacet
facet normal 0 0 -1
  outer loop
    vertex 2.64806 38.9711 0
    vertex -1.19886 40.3744 0
    vertex 2.11472 42.6189 0
  endloop
endfacet
facet normal -0 0 -1
  outer loop
    vertex 5 50.64 0
    vertex 0.969539 46.7791 0
    vertex 8.88178e-15 50.64 0
  endloop
endfacet
facet normal 0 0 -1
  outer loop
    vertex 5 8.64 0
    vertex 0 8.64 0
    vertex 0.970716 12.4933 0
  endloop
endfacet
facet normal 0 -0 -1
  outer loop
    vertex 3.36867 19.8765 0
    vertex 7.07176 17.9999 0
    vertex 2.24717 16.475 0
  endloop
endfacet
facet normal 0 0 -1
  outer loop
    vertex 7.6632 33.13 0
    vertex 6.43116 29.322 0
    vertex 2.89018 32.3605 0
  endloop
endfacet
facet normal 0 0 -1
  outer loop
    vertex 3.36867 19.8765 0
    vertex 5.24368 23.1097 0
    vertex 7.07176 17.9999 0
  endloop
endfacet
facet normal -0 0 -1
  outer loop
    vertex 15 31.9733 0
    vertex 10.7595 29.4116 0
    vertex 11.5967 33.6987 0
  endloop
endfacet
facet normal -0 0 -1
  outer loop
    vertex 9.56064 37.3383 0
    vertex 5.29693 35.9786 0
    vertex 6.28608 40.916 0
  endloop
endfacet
facet normal 0 0 -1
  outer loop
    vertex 15 8.64 0
    vertex 10 8.64 0
    vertex 11.3576 12.1973 0
  endloop
endfacet
facet normal -0 0 -1
  outer loop
    vertex 15 50.64 0
    vertex 11.1755 46.8389 0
    vertex 10 50.64 0
  endloop
endfacet
facet normal 0 -0 -1
  outer loop
    vertex 15 50.64 0
    vertex 15 45.9733 0
    vertex 11.1755 46.8389 0
  endloop
endfacet
facet normal 0 0 -1
  outer loop
    vertex 15 8.64 0
    vertex 11.3576 12.1973 0
    vertex 15 13.3067 0
  endloop
endfacet
facet normal 0 -0 -1
  outer loop
    vertex -1.43668 15.5288 0
    vertex 0.970716 12.4933 0
    vertex -3.77801 12.6835 0
  endloop
endfacet
facet normal 0 0 -1
  outer loop
    vertex -1.43668 43.7512 0
    vertex -3.77801 46.5965 0
    vertex 0.969539 46.7791 0
  endloop
endfacet
facet normal 0 -0 -1
  outer loop
    vertex 3.55271e-15 29.64 0
    vertex 2.94612 27.1429 0
    vertex -1.45402 26.8331 0
  endloop
endfacet
facet normal 0 0 -1
  outer loop
    vertex 15 31.9733 0
    vertex 11.5967 33.6987 0
    vertex 15 36.64 0
  endloop
endfacet
facet normal 0 0 -1
  outer loop
    vertex -15 8.64 0
    vertex -11.4092 12.2192 0
    vertex -10 8.64 0
  endloop
endfacet
facet normal 0 0 -1
  outer loop
    vertex -15 50.64 0
    vertex -10 50.64 0
    vertex -11.4092 47.0608 0
  endloop
endfacet
facet normal 0 0 -1
  outer loop
    vertex -0.304089 23.3301 0
    vertex -1.45402 26.8331 0
    vertex 2.94612 27.1429 0
  endloop
endfacet
facet normal 0 0 -1
  outer loop
    vertex 2.64806 38.9711 0
    vertex 6.28608 40.916 0
    vertex 5.29693 35.9786 0
  endloop
endfacet
facet normal 0 0 -1
  outer loop
    vertex -15 8.64 0
    vertex -15 13.3067 0
    vertex -11.4092 12.2192 0
  endloop
endfacet
facet normal 0 -0 -1
  outer loop
    vertex -15 50.64 0
    vertex -11.4092 47.0608 0
    vertex -15 45.9733 0
  endloop
endfacet
facet normal 0 0 -1
  outer loop
    vertex 7.6632 33.13 0
    vertex 11.5967 33.6987 0
    vertex 10.7595 29.4116 0
  endloop
endfacet
facet normal 0 0 -1
  outer loop
    vertex -7.39872 29.5912 0
    vertex -4.84645 33.6513 0
    vertex -3.39706 29.6319 0
  endloop
endfacet
facet normal -0 0 -1
  outer loop
    vertex 15 27.3067 0
    vertex 11.9293 24.9733 0
    vertex 10.7595 29.4116 0
  endloop
endfacet
facet normal 0 0 -1
  outer loop
    vertex 8.10748 25.4899 0
    vertex 10.7595 29.4116 0
    vertex 11.9293 24.9733 0
  endloop
endfacet
facet normal 0 -0 -1
  outer loop
    vertex 7.6632 33.13 0
    vertex 10.7595 29.4116 0
    vertex 6.43116 29.322 0
  endloop
endfacet
facet normal 0 0 -1
  outer loop
    vertex 8.10748 25.4899 0
    vertex 6.43116 29.322 0
    vertex 10.7595 29.4116 0
  endloop
endfacet
facet normal 0 0 -1
  outer loop
    vertex 8.27829 44.5186 0
    vertex 4.79263 45.6021 0
    vertex 7.84927 47.6479 0
  endloop
endfacet
facet normal 0 0 -1
  outer loop
    vertex 8.60813 14.5875 0
    vertex 7.73145 11.4903 0
    vertex 4.80251 13.6146 0
  endloop
endfacet
facet normal 0 0 -1
  outer loop
    vertex -7.39872 29.5912 0
    vertex -3.39706 29.6319 0
    vertex -4.84645 25.6287 0
  endloop
endfacet
facet normal 0 0 -1
  outer loop
    vertex -15 41.3067 0
    vertex -12.1197 43.5474 0
    vertex -11.0311 39.7084 0
  endloop
endfacet
facet normal 0 0 -1
  outer loop
    vertex -15 17.9733 0
    vertex -11.0311 19.5692 0
    vertex -12.1197 15.7321 0
  endloop
endfacet
facet normal 0 -0 -1
  outer loop
    vertex 5 50.64 0
    vertex 7.84927 47.6479 0
    vertex 4.79263 45.6021 0
  endloop
endfacet
facet normal 0 0 -1
  outer loop
    vertex 5 8.64 0
    vertex 4.80251 13.6146 0
    vertex 7.73145 11.4903 0
  endloop
endfacet
facet normal 0 0 -1
  outer loop
    vertex -15 27.3067 0
    vertex -15 31.9733 0
    vertex -11.5481 29.631 0
  endloop
endfacet
facet normal 0 0 -1
  outer loop
    vertex -8.15793 43.6877 0
    vertex -11.0311 39.7084 0
    vertex -12.1197 43.5474 0
  endloop
endfacet
facet normal 0 0 -1
  outer loop
    vertex -8.15793 15.5923 0
    vertex -12.1197 15.7321 0
    vertex -11.0311 19.5692 0
  endloop
endfacet
facet normal 0 0 -1
  outer loop
    vertex -0.304089 23.3301 0
    vertex -4.84645 25.6287 0
    vertex -1.45402 26.8331 0
  endloop
endfacet
facet normal 0 0 -1
  outer loop
    vertex -0.389971 35.717 0
    vertex -1.46436 32.445 0
    vertex -4.84645 33.6513 0
  endloop
endfacet
facet normal 0 0 -1
  outer loop
    vertex -8.15793 15.5923 0
    vertex -4.24139 16.6906 0
    vertex -3.77801 12.6835 0
  endloop
endfacet
facet normal 0 0 -1
  outer loop
    vertex -8.15793 43.6877 0
    vertex -3.77801 46.5965 0
    vertex -4.2551 42.578 0
  endloop
endfacet
facet normal 0 0 -1
  outer loop
    vertex 15 22.64 0
    vertex 11.9293 24.9733 0
    vertex 15 27.3067 0
  endloop
endfacet
facet normal 0 0 -1
  outer loop
    vertex 8.10748 25.4899 0
    vertex 2.94612 27.1429 0
    vertex 6.43116 29.322 0
  endloop
endfacet
facet normal 0 0 -1
  outer loop
    vertex 3.55271e-15 29.64 0
    vertex -1.46436 32.445 0
    vertex 2.89018 32.3605 0
  endloop
endfacet
facet normal 0 -0 -1
  outer loop
    vertex -0.389971 35.717 0
    vertex 2.89018 32.3605 0
    vertex -1.46436 32.445 0
  endloop
endfacet
facet normal -0 0 -1
  outer loop
    vertex 8.10748 25.4899 0
    vertex 5.24368 23.1097 0
    vertex 2.94612 27.1429 0
  endloop
endfacet
facet normal 0 0 -1
  outer loop
    vertex -5 8.64 0
    vertex -10 8.64 0
    vertex -7.66903 11.555 0
  endloop
endfacet
facet normal -0 0 -1
  outer loop
    vertex -5 50.64 0
    vertex -7.66903 47.725 0
    vertex -10 50.64 0
  endloop
endfacet
facet normal 0 0 -1
  outer loop
    vertex 10 8.64 0
    vertex 5 8.64 0
    vertex 7.73145 11.4903 0
  endloop
endfacet
facet normal -0 0 -1
  outer loop
    vertex 10 50.64 0
    vertex 7.84927 47.6479 0
    vertex 5 50.64 0
  endloop
endfacet
facet normal 0 0 -1
  outer loop
    vertex -15 13.3067 0
    vertex -15 17.9733 0
    vertex -12.1197 15.7321 0
  endloop
endfacet
facet normal 0 0 -1
  outer loop
    vertex -15 41.3067 0
    vertex -15 45.9733 0
    vertex -12.1197 43.5474 0
  endloop
endfacet
facet normal 0 0 -1
  outer loop
    vertex 15 13.3067 0
    vertex 11.7662 15.8855 0
    vertex 15 17.9733 0
  endloop
endfacet
facet normal -0 0 -1
  outer loop
    vertex 7.6632 33.13 0
    vertex 2.89018 32.3605 0
    vertex 5.29693 35.9786 0
  endloop
endfacet
facet normal 0 0 -1
  outer loop
    vertex -1.43668 43.7512 0
    vertex 0.969539 46.7791 0
    vertex 2.11472 42.6189 0
  endloop
endfacet
facet normal 0 0 -1
  outer loop
    vertex -1.43668 15.5288 0
    vertex 2.24717 16.475 0
    vertex 0.970716 12.4933 0
  endloop
endfacet
facet normal -0 0 -1
  outer loop
    vertex 4.79263 45.6021 0
    vertex 2.11472 42.6189 0
    vertex 0.969539 46.7791 0
  endloop
endfacet
facet normal -0 0 -1
  outer loop
    vertex 4.80251 13.6146 0
    vertex 0.970716 12.4933 0
    vertex 2.24717 16.475 0
  endloop
endfacet
facet normal 0 0 -1
  outer loop
    vertex -1.43668 15.5288 0
    vertex -1.06444 18.7947 0
    vertex 2.24717 16.475 0
  endloop
endfacet
facet normal 0 0 -1
  outer loop
    vertex -1.43668 43.7512 0
    vertex 2.11472 42.6189 0
    vertex -1.19886 40.3744 0
  endloop
endfacet
facet normal 0 0 -1
  outer loop
    vertex -4.84645 33.6513 0
    vertex -1.46436 32.445 0
    vertex -3.39706 29.6319 0
  endloop
endfacet
facet normal 0 0 -1
  outer loop
    vertex -5.70228 38.6946 0
    vertex -4.2551 42.578 0
    vertex -1.19886 40.3744 0
  endloop
endfacet
facet normal 0 0 -1
  outer loop
    vertex -5.70228 20.5854 0
    vertex -1.06444 18.7947 0
    vertex -4.24139 16.6906 0
  endloop
endfacet
facet normal 0 -0 -1
  outer loop
    vertex -1.43668 43.7512 0
    vertex -1.19886 40.3744 0
    vertex -4.2551 42.578 0
  endloop
endfacet
facet normal 0 0 -1
  outer loop
    vertex -1.43668 15.5288 0
    vertex -4.24139 16.6906 0
    vertex -1.06444 18.7947 0
  endloop
endfacet
facet normal -0 0 -1
  outer loop
    vertex -1.43668 43.7512 0
    vertex -4.2551 42.578 0
    vertex -3.77801 46.5965 0
  endloop
endfacet
facet normal -0 0 -1
  outer loop
    vertex -1.43668 15.5288 0
    vertex -3.77801 12.6835 0
    vertex -4.24139 16.6906 0
  endloop
endfacet
facet normal 0 0 -1
  outer loop
    vertex -5 8.64 0
    vertex -7.66903 11.555 0
    vertex -3.77801 12.6835 0
  endloop
endfacet
facet normal 0 -0 -1
  outer loop
    vertex -5 50.64 0
    vertex -3.77801 46.5965 0
    vertex -7.66903 47.725 0
  endloop
endfacet
facet normal 0 0 -1
  outer loop
    vertex -8.15793 15.5923 0
    vertex -3.77801 12.6835 0
    vertex -7.66903 11.555 0
  endloop
endfacet
facet normal 0 0 -1
  outer loop
    vertex -8.15793 43.6877 0
    vertex -7.66903 47.725 0
    vertex -3.77801 46.5965 0
  endloop
endfacet
facet normal -0 0 -1
  outer loop
    vertex 3.55271e-15 29.64 0
    vertex -3.39706 29.6319 0
    vertex -1.46436 32.445 0
  endloop
endfacet
facet normal 0 -0 -1
  outer loop
    vertex 8.60813 14.5875 0
    vertex 11.3576 12.1973 0
    vertex 7.73145 11.4903 0
  endloop
endfacet
facet normal 0 0 -1
  outer loop
    vertex 8.27829 44.5186 0
    vertex 7.84927 47.6479 0
    vertex 11.1755 46.8389 0
  endloop
endfacet
facet normal 0 0 -1
  outer loop
    vertex 10 8.64 0
    vertex 7.73145 11.4903 0
    vertex 11.3576 12.1973 0
  endloop
endfacet
facet normal 0 -0 -1
  outer loop
    vertex 10 50.64 0
    vertex 11.1755 46.8389 0
    vertex 7.84927 47.6479 0
  endloop
endfacet
facet normal 0 -0 -1
  outer loop
    vertex 8.27829 44.5186 0
    vertex 11.2745 41.4244 0
    vertex 6.28608 40.916 0
  endloop
endfacet
facet normal 0 0 -1
  outer loop
    vertex 9.56064 37.3383 0
    vertex 6.28608 40.916 0
    vertex 11.2745 41.4244 0
  endloop
endfacet
facet normal 0 0 -1
  outer loop
    vertex -15 13.3067 0
    vertex -12.1197 15.7321 0
    vertex -11.4092 12.2192 0
  endloop
endfacet
facet normal 0 0 -1
  outer loop
    vertex -15 45.9733 0
    vertex -11.4092 47.0608 0
    vertex -12.1197 43.5474 0
  endloop
endfacet
facet normal -0 0 -1
  outer loop
    vertex 15 13.3067 0
    vertex 11.3576 12.1973 0
    vertex 11.7662 15.8855 0
  endloop
endfacet
facet normal 0 0 -1
  outer loop
    vertex 3.55271e-15 29.64 0
    vertex -1.45402 26.8331 0
    vertex -3.39706 29.6319 0
  endloop
endfacet
facet normal 0 0 -1
  outer loop
    vertex 8.60813 14.5875 0
    vertex 11.7662 15.8855 0
    vertex 11.3576 12.1973 0
  endloop
endfacet
facet normal 0 0 -1
  outer loop
    vertex -4.84645 25.6287 0
    vertex -3.39706 29.6319 0
    vertex -1.45402 26.8331 0
  endloop
endfacet
facet normal -0 0 -1
  outer loop
    vertex -8.15793 43.6877 0
    vertex -12.1197 43.5474 0
    vertex -11.4092 47.0608 0
  endloop
endfacet
facet normal -0 0 -1
  outer loop
    vertex -8.15793 15.5923 0
    vertex -11.4092 12.2192 0
    vertex -12.1197 15.7321 0
  endloop
endfacet
facet normal 0 0 -1
  outer loop
    vertex -8.15793 43.6877 0
    vertex -11.4092 47.0608 0
    vertex -7.66903 47.725 0
  endloop
endfacet
facet normal 0 -0 -1
  outer loop
    vertex -8.15793 15.5923 0
    vertex -7.66903 11.555 0
    vertex -11.4092 12.2192 0
  endloop
endfacet
facet normal 0 -0 -1
  outer loop
    vertex -10 50.64 0
    vertex -7.66903 47.725 0
    vertex -11.4092 47.0608 0
  endloop
endfacet
facet normal 0 0 -1
  outer loop
    vertex -10 8.64 0
    vertex -11.4092 12.2192 0
    vertex -7.66903 11.555 0
  endloop
endfacet
facet normal 0 -0 1
  outer loop
    vertex 0 8.64 5
    vertex 1.77636e-15 15.0559 5
    vertex -4.3901 13.4142 5
  endloop
endfacet
facet normal 0 0 1
  outer loop
    vertex 0 8.64 5
    vertex 4.4277 13.0993 5
    vertex 1.77636e-15 15.0559 5
  endloop
endfacet
facet normal 0 0 1
  outer loop
    vertex 15 36.64 5
    vertex 10.7555 40.4223 5
    vertex 8.64419 36.4221 5
  endloop
endfacet
facet normal 0 -0 1
  outer loop
    vertex -5.56394 32.5387 5
    vertex -3.47759 37.2659 5
    vertex -9.01596 36.8473 5
  endloop
endfacet
facet normal 0 0 1
  outer loop
    vertex 6.15232 30.8699 5
    vertex 11.2054 33.2887 5
    vertex 8.64419 36.4221 5
  endloop
endfacet
facet normal 0 0 1
  outer loop
    vertex -6.4519 41.1831 5
    vertex -9.01596 36.8473 5
    vertex -3.47759 37.2659 5
  endloop
endfacet
facet normal 0 -0 1
  outer loop
    vertex 6.15232 30.8699 5
    vertex 8.64419 36.4221 5
    vertex 3.83593 34.5227 5
  endloop
endfacet
facet normal 0 0 1
  outer loop
    vertex 15 36.64 5
    vertex 8.64419 36.4221 5
    vertex 11.2054 33.2887 5
  endloop
endfacet
facet normal 0 0 1
  outer loop
    vertex 8.64419 36.4221 5
    vertex 5.99875 39.1547 5
    vertex 3.83593 34.5227 5
  endloop
endfacet
facet normal -0 0 1
  outer loop
    vertex 1.71676 37.9165 5
    vertex 3.83593 34.5227 5
    vertex 5.99875 39.1547 5
  endloop
endfacet
facet normal 0 0 1
  outer loop
    vertex 6.02616 17.2512 5
    vertex 1.19166 20.0146 5
    vertex 1.77636e-15 15.0559 5
  endloop
endfacet
facet normal 0 0 1
  outer loop
    vertex -15 36.64 5
    vertex -9.01596 36.8473 5
    vertex -11.0014 40.7762 5
  endloop
endfacet
facet normal 0 0 1
  outer loop
    vertex -5.56394 32.5387 5
    vertex -3.32277 27.7978 5
    vertex 0.359246 31.2425 5
  endloop
endfacet
facet normal -0 0 1
  outer loop
    vertex -5.56394 32.5387 5
    vertex 0.359246 31.2425 5
    vertex -0.625917 34.6973 5
  endloop
endfacet
facet normal 0 -0 1
  outer loop
    vertex 6.02616 17.2512 5
    vertex 10.4042 20.1901 5
    vertex 4.66485 22.2608 5
  endloop
endfacet
facet normal 0 0 1
  outer loop
    vertex 8.40532 24.0263 5
    vertex 4.66485 22.2608 5
    vertex 10.4042 20.1901 5
  endloop
endfacet
facet normal 0 0 1
  outer loop
    vertex 10.4042 20.1901 5
    vertex 6.02616 17.2512 5
    vertex 11.9295 16.5366 5
  endloop
endfacet
facet normal 0 0 1
  outer loop
    vertex 6.02616 17.2512 5
    vertex 1.77636e-15 15.0559 5
    vertex 4.4277 13.0993 5
  endloop
endfacet
facet normal 0 0 1
  outer loop
    vertex 6.15232 30.8699 5
    vertex 0.359246 31.2425 5
    vertex 1.47195 27.9757 5
  endloop
endfacet
facet normal 0 0 1
  outer loop
    vertex -15 36.64 5
    vertex -11.0014 40.7762 5
    vertex -15 41.3067 5
  endloop
endfacet
facet normal 0 0 1
  outer loop
    vertex 11.9295 16.5366 5
    vertex 6.02616 17.2512 5
    vertex 8.98005 14.0055 5
  endloop
endfacet
facet normal 0 0 1
  outer loop
    vertex 6.15232 30.8699 5
    vertex 3.83593 34.5227 5
    vertex 0.359246 31.2425 5
  endloop
endfacet
facet normal 0 0 1
  outer loop
    vertex 5 8.64 5
    vertex 4.4277 13.0993 5
    vertex 0 8.64 5
  endloop
endfacet
facet normal 0 0 1
  outer loop
    vertex 0 8.64 5
    vertex -4.3901 13.4142 5
    vertex -5 8.64 5
  endloop
endfacet
facet normal 0 0 1
  outer loop
    vertex -5.56394 32.5387 5
    vertex -9.01596 36.8473 5
    vertex -11.093 33.5342 5
  endloop
endfacet
facet normal 0 0 1
  outer loop
    vertex 15 50.64 5
    vertex 10.6541 46.329 5
    vertex 15 45.9733 5
  endloop
endfacet
facet normal 0 0 1
  outer loop
    vertex 15 50.64 5
    vertex 10 50.64 5
    vertex 10.6541 46.329 5
  endloop
endfacet
facet normal 0 0 1
  outer loop
    vertex 7.10543e-15 24.9733 5
    vertex -3.32277 27.7978 5
    vertex -3.65693 22.3645 5
  endloop
endfacet
facet normal 0 0 1
  outer loop
    vertex -5.56394 32.5387 5
    vertex -11.093 33.5342 5
    vertex -10.1956 29.8087 5
  endloop
endfacet
facet normal -0 0 1
  outer loop
    vertex -7.42104 25.7725 5
    vertex -3.65693 22.3645 5
    vertex -3.32277 27.7978 5
  endloop
endfacet
facet normal 0 0 1
  outer loop
    vertex 15 22.64 5
    vertex 11.869 25.037 5
    vertex 10.4042 20.1901 5
  endloop
endfacet
facet normal 0 0 1
  outer loop
    vertex -5.56394 32.5387 5
    vertex -0.625917 34.6973 5
    vertex -3.47759 37.2659 5
  endloop
endfacet
facet normal 0 0 1
  outer loop
    vertex 7.10543e-15 24.9733 5
    vertex -3.65693 22.3645 5
    vertex 1.19166 20.0146 5
  endloop
endfacet
facet normal 0 0 1
  outer loop
    vertex -15 27.3067 5
    vertex -10.1956 29.8087 5
    vertex -15 31.9733 5
  endloop
endfacet
facet normal 0 -0 1
  outer loop
    vertex 1.71676 37.9165 5
    vertex 3.17218 41.9728 5
    vertex -2.08973 40.9557 5
  endloop
endfacet
facet normal 0 -0 1
  outer loop
    vertex 15 17.9733 5
    vertex 15 22.64 5
    vertex 10.4042 20.1901 5
  endloop
endfacet
facet normal 0 0 1
  outer loop
    vertex -6.68274 18.0317 5
    vertex -11.5966 16.9885 5
    vertex -9.64697 14.0301 5
  endloop
endfacet
facet normal 0 0 1
  outer loop
    vertex -6.68274 18.0317 5
    vertex -10.7951 20.3537 5
    vertex -11.5966 16.9885 5
  endloop
endfacet
facet normal 0 0 1
  outer loop
    vertex -15 17.9733 5
    vertex -10.7951 20.3537 5
    vertex -15 22.64 5
  endloop
endfacet
facet normal 0 0 1
  outer loop
    vertex 6.02616 17.2512 5
    vertex 4.4277 13.0993 5
    vertex 8.98005 14.0055 5
  endloop
endfacet
facet normal 0 0 1
  outer loop
    vertex -6.68274 18.0317 5
    vertex -9.64697 14.0301 5
    vertex -4.3901 13.4142 5
  endloop
endfacet
facet normal 0 -0 1
  outer loop
    vertex 15 36.64 5
    vertex 15 41.3067 5
    vertex 10.7555 40.4223 5
  endloop
endfacet
facet normal -0 0 1
  outer loop
    vertex 6.15232 30.8699 5
    vertex 11.0538 29.64 5
    vertex 11.2054 33.2887 5
  endloop
endfacet
facet normal 0 0 1
  outer loop
    vertex 5 50.64 5
    vertex 8.88178e-15 50.64 5
    vertex 3.18011 46.5592 5
  endloop
endfacet
facet normal 0 -0 1
  outer loop
    vertex -6.4519 41.1831 5
    vertex -4.50762 45.5438 5
    vertex -8.93473 44.5827 5
  endloop
endfacet
facet normal -0 0 1
  outer loop
    vertex 8.40532 24.0263 5
    vertex 10.4042 20.1901 5
    vertex 11.869 25.037 5
  endloop
endfacet
facet normal 0 0 1
  outer loop
    vertex 8.88178e-15 50.64 5
    vertex -1.31997 47.3595 5
    vertex 3.18011 46.5592 5
  endloop
endfacet
facet normal -0 0 1
  outer loop
    vertex -15 36.64 5
    vertex -11.093 33.5342 5
    vertex -9.01596 36.8473 5
  endloop
endfacet
facet normal -0 0 1
  outer loop
    vertex -15 27.3067 5
    vertex -11.3334 24.7886 5
    vertex -10.1956 29.8087 5
  endloop
endfacet
facet normal 0 0 1
  outer loop
    vertex -6.4519 41.1831 5
    vertex -11.0014 40.7762 5
    vertex -9.01596 36.8473 5
  endloop
endfacet
facet normal 0 0 1
  outer loop
    vertex 7.10543e-15 24.9733 5
    vertex 1.19166 20.0146 5
    vertex 4.66485 22.2608 5
  endloop
endfacet
facet normal 0 0 1
  outer loop
    vertex -0.0900369 44.0443 5
    vertex -2.08973 40.9557 5
    vertex 3.17218 41.9728 5
  endloop
endfacet
facet normal 0 0 1
  outer loop
    vertex 6.15232 30.8699 5
    vertex 1.47195 27.9757 5
    vertex 4.83392 26.2682 5
  endloop
endfacet
facet normal 0 0 1
  outer loop
    vertex -7.42104 25.7725 5
    vertex -10.1956 29.8087 5
    vertex -11.3334 24.7886 5
  endloop
endfacet
facet normal -0 0 1
  outer loop
    vertex 7.10543e-15 24.9733 5
    vertex 4.66485 22.2608 5
    vertex 4.83392 26.2682 5
  endloop
endfacet
facet normal 0 0 1
  outer loop
    vertex 0.359246 31.2425 5
    vertex -3.32277 27.7978 5
    vertex 1.47195 27.9757 5
  endloop
endfacet
facet normal 0 0 1
  outer loop
    vertex 1.19166 20.0146 5
    vertex -3.65693 22.3645 5
    vertex -2.52476 17.8902 5
  endloop
endfacet
facet normal 0 0 1
  outer loop
    vertex 1.71676 37.9165 5
    vertex -2.08973 40.9557 5
    vertex -3.47759 37.2659 5
  endloop
endfacet
facet normal 0 0 1
  outer loop
    vertex -15 13.3067 5
    vertex -9.64697 14.0301 5
    vertex -11.5966 16.9885 5
  endloop
endfacet
facet normal 0 -0 1
  outer loop
    vertex -10.7951 20.3537 5
    vertex -7.47351 21.91 5
    vertex -11.3334 24.7886 5
  endloop
endfacet
facet normal -0 0 1
  outer loop
    vertex -15 22.64 5
    vertex -10.7951 20.3537 5
    vertex -11.3334 24.7886 5
  endloop
endfacet
facet normal -0 0 1
  outer loop
    vertex -6.4519 41.1831 5
    vertex -2.08973 40.9557 5
    vertex -4.50762 45.5438 5
  endloop
endfacet
facet normal 0 0 1
  outer loop
    vertex -6.4519 41.1831 5
    vertex -8.93473 44.5827 5
    vertex -11.0014 40.7762 5
  endloop
endfacet
facet normal 0 0 1
  outer loop
    vertex -7.42104 25.7725 5
    vertex -11.3334 24.7886 5
    vertex -7.47351 21.91 5
  endloop
endfacet
facet normal 0 0 1
  outer loop
    vertex -0.0900369 44.0443 5
    vertex -4.50762 45.5438 5
    vertex -2.08973 40.9557 5
  endloop
endfacet
facet normal -0 0 1
  outer loop
    vertex -15 13.3067 5
    vertex -12.0276 11.4794 5
    vertex -9.64697 14.0301 5
  endloop
endfacet
facet normal 0 0 1
  outer loop
    vertex -5.56394 32.5387 5
    vertex -10.1956 29.8087 5
    vertex -6.62583 28.9794 5
  endloop
endfacet
facet normal 0 -0 1
  outer loop
    vertex 7.10543e-15 24.9733 5
    vertex 1.47195 27.9757 5
    vertex -3.32277 27.7978 5
  endloop
endfacet
facet normal 0 0 1
  outer loop
    vertex -6.68274 18.0317 5
    vertex -4.3901 13.4142 5
    vertex -2.52476 17.8902 5
  endloop
endfacet
facet normal 0 -0 1
  outer loop
    vertex 15 27.3067 5
    vertex 15 31.9733 5
    vertex 11.0538 29.64 5
  endloop
endfacet
facet normal 0 0 1
  outer loop
    vertex 1.77636e-15 15.0559 5
    vertex -2.52476 17.8902 5
    vertex -4.3901 13.4142 5
  endloop
endfacet
facet normal 0 0 1
  outer loop
    vertex 6.02616 17.2512 5
    vertex 4.66485 22.2608 5
    vertex 1.19166 20.0146 5
  endloop
endfacet
facet normal -0 0 1
  outer loop
    vertex -15 31.9733 5
    vertex -10.1956 29.8087 5
    vertex -11.093 33.5342 5
  endloop
endfacet
facet normal 0 -0 1
  outer loop
    vertex -7.42104 25.7725 5
    vertex -6.62583 28.9794 5
    vertex -10.1956 29.8087 5
  endloop
endfacet
facet normal 0 -0 1
  outer loop
    vertex 15 31.9733 5
    vertex 15 36.64 5
    vertex 11.2054 33.2887 5
  endloop
endfacet
facet normal 0 0 1
  outer loop
    vertex -15 13.3067 5
    vertex -11.5966 16.9885 5
    vertex -15 17.9733 5
  endloop
endfacet
facet normal 0 -0 1
  outer loop
    vertex -0.0900369 44.0443 5
    vertex 3.18011 46.5592 5
    vertex -1.31997 47.3595 5
  endloop
endfacet
facet normal -0 0 1
  outer loop
    vertex -15 17.9733 5
    vertex -11.5966 16.9885 5
    vertex -10.7951 20.3537 5
  endloop
endfacet
facet normal 0 0 1
  outer loop
    vertex -15 31.9733 5
    vertex -11.093 33.5342 5
    vertex -15 36.64 5
  endloop
endfacet
facet normal 0 0 1
  outer loop
    vertex -6.68274 18.0317 5
    vertex -7.47351 21.91 5
    vertex -10.7951 20.3537 5
  endloop
endfacet
facet normal 0 0 1
  outer loop
    vertex 8.98005 14.0055 5
    vertex 4.4277 13.0993 5
    vertex 7.52957 11.2865 5
  endloop
endfacet
facet normal 0 0 1
  outer loop
    vertex -9.64697 14.0301 5
    vertex -7.33338 11.3265 5
    vertex -4.3901 13.4142 5
  endloop
endfacet
facet normal 0 0 1
  outer loop
    vertex -6.4519 41.1831 5
    vertex -3.47759 37.2659 5
    vertex -2.08973 40.9557 5
  endloop
endfacet
facet normal 0 0 1
  outer loop
    vertex 1.71676 37.9165 5
    vertex -3.47759 37.2659 5
    vertex -0.625917 34.6973 5
  endloop
endfacet
facet normal 0 0 1
  outer loop
    vertex 15 27.3067 5
    vertex 11.0538 29.64 5
    vertex 11.869 25.037 5
  endloop
endfacet
facet normal 0 0 1
  outer loop
    vertex 15 13.3067 5
    vertex 11.9295 16.5366 5
    vertex 11.866 11.633 5
  endloop
endfacet
facet normal 0 0 1
  outer loop
    vertex -8.93473 44.5827 5
    vertex -4.50762 45.5438 5
    vertex -7.56381 47.9568 5
  endloop
endfacet
facet normal 0 0 1
  outer loop
    vertex 11.0538 29.64 5
    vertex 8.46288 27.1683 5
    vertex 11.869 25.037 5
  endloop
endfacet
facet normal 0 -0 1
  outer loop
    vertex 1.77636e-15 15.0559 5
    vertex 1.19166 20.0146 5
    vertex -2.52476 17.8902 5
  endloop
endfacet
facet normal 0 0 1
  outer loop
    vertex 8.88178e-15 50.64 5
    vertex -5 50.64 5
    vertex -1.31997 47.3595 5
  endloop
endfacet
facet normal -0 0 1
  outer loop
    vertex -6.68274 18.0317 5
    vertex -2.52476 17.8902 5
    vertex -3.65693 22.3645 5
  endloop
endfacet
facet normal -0 0 1
  outer loop
    vertex 8.98005 14.0055 5
    vertex 11.866 11.633 5
    vertex 11.9295 16.5366 5
  endloop
endfacet
facet normal 0 0 1
  outer loop
    vertex 8.40532 24.0263 5
    vertex 4.83392 26.2682 5
    vertex 4.66485 22.2608 5
  endloop
endfacet
facet normal 0 0 1
  outer loop
    vertex 15 31.9733 5
    vertex 11.2054 33.2887 5
    vertex 11.0538 29.64 5
  endloop
endfacet
facet normal 0 0 1
  outer loop
    vertex -5 50.64 5
    vertex -4.50762 45.5438 5
    vertex -1.31997 47.3595 5
  endloop
endfacet
facet normal 0 0 1
  outer loop
    vertex -15 22.64 5
    vertex -11.3334 24.7886 5
    vertex -15 27.3067 5
  endloop
endfacet
facet normal 0 0 1
  outer loop
    vertex -7.42104 25.7725 5
    vertex -3.32277 27.7978 5
    vertex -6.62583 28.9794 5
  endloop
endfacet
facet normal 0 -0 1
  outer loop
    vertex 15 13.3067 5
    vertex 15 17.9733 5
    vertex 11.9295 16.5366 5
  endloop
endfacet
facet normal 0 0 1
  outer loop
    vertex 1.71676 37.9165 5
    vertex 5.99875 39.1547 5
    vertex 3.17218 41.9728 5
  endloop
endfacet
facet normal 0 0 1
  outer loop
    vertex 7.86798 43.6716 5
    vertex 3.18011 46.5592 5
    vertex 3.17218 41.9728 5
  endloop
endfacet
facet normal -0 0 1
  outer loop
    vertex -15 8.64 5
    vertex -10 8.64 5
    vertex -12.0276 11.4794 5
  endloop
endfacet
facet normal 0 0 1
  outer loop
    vertex 15 8.64 5
    vertex 11.866 11.633 5
    vertex 10 8.64 5
  endloop
endfacet
facet normal -0 0 1
  outer loop
    vertex -0.0900369 44.0443 5
    vertex 3.17218 41.9728 5
    vertex 3.18011 46.5592 5
  endloop
endfacet
facet normal -0 0 1
  outer loop
    vertex -15 50.64 5
    vertex -11.5165 47.2388 5
    vertex -10 50.64 5
  endloop
endfacet
facet normal 0 0 1
  outer loop
    vertex 15 17.9733 5
    vertex 10.4042 20.1901 5
    vertex 11.9295 16.5366 5
  endloop
endfacet
facet normal 0 0 1
  outer loop
    vertex 7.86798 43.6716 5
    vertex 10.7555 40.4223 5
    vertex 12.169 43.4537 5
  endloop
endfacet
facet normal 0 -0 1
  outer loop
    vertex -6.68274 18.0317 5
    vertex -3.65693 22.3645 5
    vertex -7.47351 21.91 5
  endloop
endfacet
facet normal -0 0 1
  outer loop
    vertex 7.86798 43.6716 5
    vertex 12.169 43.4537 5
    vertex 10.6541 46.329 5
  endloop
endfacet
facet normal 0 0 1
  outer loop
    vertex -5.56394 32.5387 5
    vertex -6.62583 28.9794 5
    vertex -3.32277 27.7978 5
  endloop
endfacet
facet normal 0 -0 1
  outer loop
    vertex 15 22.64 5
    vertex 15 27.3067 5
    vertex 11.869 25.037 5
  endloop
endfacet
facet normal 0 0 1
  outer loop
    vertex -15 8.64 5
    vertex -12.0276 11.4794 5
    vertex -15 13.3067 5
  endloop
endfacet
facet normal 0 -0 1
  outer loop
    vertex 15 8.64 5
    vertex 15 13.3067 5
    vertex 11.866 11.633 5
  endloop
endfacet
facet normal 0 0 1
  outer loop
    vertex 6.15232 30.8699 5
    vertex 4.83392 26.2682 5
    vertex 8.46288 27.1683 5
  endloop
endfacet
facet normal 0 -0 1
  outer loop
    vertex 8.40532 24.0263 5
    vertex 8.46288 27.1683 5
    vertex 4.83392 26.2682 5
  endloop
endfacet
facet normal 0 0 1
  outer loop
    vertex -15 50.64 5
    vertex -15 45.9733 5
    vertex -11.5165 47.2388 5
  endloop
endfacet
facet normal 0 0 1
  outer loop
    vertex 10 50.64 5
    vertex 5 50.64 5
    vertex 7.29047 47.7083 5
  endloop
endfacet
facet normal 0 0 1
  outer loop
    vertex -7.42104 25.7725 5
    vertex -7.47351 21.91 5
    vertex -3.65693 22.3645 5
  endloop
endfacet
facet normal 0 0 1
  outer loop
    vertex 7.86798 43.6716 5
    vertex 7.29047 47.7083 5
    vertex 3.18011 46.5592 5
  endloop
endfacet
facet normal 0 0 1
  outer loop
    vertex 10 8.64 5
    vertex 7.52957 11.2865 5
    vertex 5 8.64 5
  endloop
endfacet
facet normal 0 0 1
  outer loop
    vertex -5 8.64 5
    vertex -7.33338 11.3265 5
    vertex -10 8.64 5
  endloop
endfacet
facet normal 0 0 1
  outer loop
    vertex -5 50.64 5
    vertex -10 50.64 5
    vertex -7.56381 47.9568 5
  endloop
endfacet
facet normal 0 -0 1
  outer loop
    vertex 15 41.3067 5
    vertex 15 45.9733 5
    vertex 12.169 43.4537 5
  endloop
endfacet
facet normal 0 -0 1
  outer loop
    vertex 7.86798 43.6716 5
    vertex 10.6541 46.329 5
    vertex 7.29047 47.7083 5
  endloop
endfacet
facet normal 0 0 1
  outer loop
    vertex -15 41.3067 5
    vertex -12.6007 43.64 5
    vertex -15 45.9733 5
  endloop
endfacet
facet normal 0 -0 1
  outer loop
    vertex 8.64419 36.4221 5
    vertex 10.7555 40.4223 5
    vertex 5.99875 39.1547 5
  endloop
endfacet
facet normal 0 0 1
  outer loop
    vertex 7.10543e-15 24.9733 5
    vertex 4.83392 26.2682 5
    vertex 1.47195 27.9757 5
  endloop
endfacet
facet normal 0 -0 1
  outer loop
    vertex 0.359246 31.2425 5
    vertex 3.83593 34.5227 5
    vertex -0.625917 34.6973 5
  endloop
endfacet
facet normal 0 0 1
  outer loop
    vertex 7.86798 43.6716 5
    vertex 5.99875 39.1547 5
    vertex 10.7555 40.4223 5
  endloop
endfacet
facet normal 0 0 1
  outer loop
    vertex 6.15232 30.8699 5
    vertex 8.46288 27.1683 5
    vertex 11.0538 29.64 5
  endloop
endfacet
facet normal 0 0 1
  outer loop
    vertex 8.40532 24.0263 5
    vertex 11.869 25.037 5
    vertex 8.46288 27.1683 5
  endloop
endfacet
facet normal 0 0 1
  outer loop
    vertex 1.71676 37.9165 5
    vertex -0.625917 34.6973 5
    vertex 3.83593 34.5227 5
  endloop
endfacet
facet normal 0 0 1
  outer loop
    vertex -0.0900369 44.0443 5
    vertex -1.31997 47.3595 5
    vertex -4.50762 45.5438 5
  endloop
endfacet
facet normal 0 0 1
  outer loop
    vertex -5 50.64 5
    vertex -7.56381 47.9568 5
    vertex -4.50762 45.5438 5
  endloop
endfacet
facet normal 0 0 1
  outer loop
    vertex 8.98005 14.0055 5
    vertex 7.52957 11.2865 5
    vertex 11.866 11.633 5
  endloop
endfacet
facet normal 0 0 1
  outer loop
    vertex -9.64697 14.0301 5
    vertex -12.0276 11.4794 5
    vertex -7.33338 11.3265 5
  endloop
endfacet
facet normal 0 -0 1
  outer loop
    vertex -8.93473 44.5827 5
    vertex -7.56381 47.9568 5
    vertex -11.5165 47.2388 5
  endloop
endfacet
facet normal 0 -0 1
  outer loop
    vertex 10 8.64 5
    vertex 11.866 11.633 5
    vertex 7.52957 11.2865 5
  endloop
endfacet
facet normal 0 -0 1
  outer loop
    vertex -10 8.64 5
    vertex -7.33338 11.3265 5
    vertex -12.0276 11.4794 5
  endloop
endfacet
facet normal 0 0 1
  outer loop
    vertex -10 50.64 5
    vertex -11.5165 47.2388 5
    vertex -7.56381 47.9568 5
  endloop
endfacet
facet normal 0 -0 1
  outer loop
    vertex -5 8.64 5
    vertex -4.3901 13.4142 5
    vertex -7.33338 11.3265 5
  endloop
endfacet
facet normal 0 -0 1
  outer loop
    vertex 5 8.64 5
    vertex 7.52957 11.2865 5
    vertex 4.4277 13.0993 5
  endloop
endfacet
facet normal 0 0 1
  outer loop
    vertex 5 50.64 5
    vertex 3.18011 46.5592 5
    vertex 7.29047 47.7083 5
  endloop
endfacet
facet normal 0 0 1
  outer loop
    vertex 10 50.64 5
    vertex 7.29047 47.7083 5
    vertex 10.6541 46.329 5
  endloop
endfacet
facet normal -0 0 1
  outer loop
    vertex -15 41.3067 5
    vertex -11.0014 40.7762 5
    vertex -12.6007 43.64 5
  endloop
endfacet
facet normal 0 0 1
  outer loop
    vertex 15 45.9733 5
    vertex 10.6541 46.329 5
    vertex 12.169 43.4537 5
  endloop
endfacet
facet normal 0 0 1
  outer loop
    vertex -8.93473 44.5827 5
    vertex -12.6007 43.64 5
    vertex -11.0014 40.7762 5
  endloop
endfacet
facet normal 0 0 1
  outer loop
    vertex 15 41.3067 5
    vertex 12.169 43.4537 5
    vertex 10.7555 40.4223 5
  endloop
endfacet
facet normal 0 0 1
  outer loop
    vertex 7.86798 43.6716 5
    vertex 3.17218 41.9728 5
    vertex 5.99875 39.1547 5
  endloop
endfacet
facet normal -0 0 1
  outer loop
    vertex -15 45.9733 5
    vertex -12.6007 43.64 5
    vertex -11.5165 47.2388 5
  endloop
endfacet
facet normal 0 0 1
  outer loop
    vertex -8.93473 44.5827 5
    vertex -11.5165 47.2388 5
    vertex -12.6007 43.64 5
  endloop
endfacet
endsolid Created by Gmsh
