cl__1 = 1e+22;
Point(1) = {7.499999999999986, 25, 12.99038105676659, cl__1};
Point(2) = {2.5, 25, 4.330127018922192, cl__1};
Point(3) = {-2.500000000000118, 25, 4.330127018922127, cl__1};
Point(4) = {-7.499999999999998, 25, 12.99038105676657, cl__1};
Point(5) = {-3.011506652226362e-14, 25, 17.32050807568878, cl__1};
Point(6) = {44.46152422706629, 25, 42.99038105676664, cl__1};
Point(7) = {59.46152422706633, 25, 17.0096189432335, cl__1};
Point(8) = {15.00000000000003, 25, -8.660254037844378, cl__1};
Point(9) = {14.99999999999999, 25, 1.973919616438977e-14, cl__1};
Point(10) = {5.000000000000003, 25, -1.241457078270305e-13, cl__1};
Point(11) = {-4.330127018922195, 25, 2.499999999999995, cl__1};
Point(12) = {-4.330127018922195, 30, 2.499999999999996, cl__1};
Point(13) = {-2.500000000000118, 30, 4.330127018922128, cl__1};
Point(14) = {2.5, 30, 4.330127018922193, cl__1};
Point(15) = {5.000000000000003, 30, -1.234568003383174e-13, cl__1};
Point(16) = {2.500000000000118, 30, -4.330127018922128, cl__1};
Point(17) = {-2.499999999999992, 30, -4.330127018922197, cl__1};
Point(18) = {-5.000000000000003, 30, 1.234568003383174e-13, cl__1};
Point(19) = {-5.000000000000003, 25, 1.227678928496043e-13, cl__1};
Point(20) = {-2.499999999999992, 25, -4.330127018922198, cl__1};
Point(21) = {2.500000000000118, 25, -4.330127018922129, cl__1};
Point(22) = {-15.00000000000002, 25, -6.906156426613986e-15, cl__1};
Point(23) = {-14.99999999999999, 25, -8.6602540378444, cl__1};
Point(24) = {-59.46152422706633, 25, 17.00961894323336, cl__1};
Point(25) = {-44.46152422706636, 25, 42.99038105676653, cl__1};
Point(26) = {-3.019806626980425e-14, 30, 17.32050807568878, cl__1};
Point(27) = {44.46152422706629, 30, 42.99038105676664, cl__1};
Point(28) = {59.46152422706633, 30, 17.0096189432335, cl__1};
Point(29) = {15.00000000000003, 30, -8.660254037844378, cl__1};
Point(30) = {7.500000000000036, 25, -12.99038105676657, cl__1};
Point(31) = {-15.00000000000002, 30, -6.217248937900876e-15, cl__1};
Point(32) = {-14.99999999999999, 30, -8.6602540378444, cl__1};
Point(33) = {-59.46152422706633, 30, 17.00961894323336, cl__1};
Point(34) = {-44.46152422706636, 30, 42.99038105676653, cl__1};
Point(35) = {-7.499999999999998, 30, 12.99038105676657, cl__1};
Point(36) = {7.499999999999986, 30, 12.99038105676659, cl__1};
Point(37) = {14.99999999999999, 30, 2.042810365310288e-14, cl__1};
Point(38) = {7.500000000000036, 30, -12.99038105676657, cl__1};
Point(39) = {15.00000000000004, 30.00000000000001, -59.99999999999999, cl__1};
Point(40) = {-14.99999999999996, 30.00000000000001, -60.00000000000002, cl__1};
Point(41) = {-7.499999999999986, 30, -12.99038105676659, cl__1};
Point(42) = {-7.499999999999986, 25, -12.99038105676659, cl__1};
Point(43) = {15.00000000000004, 25.00000000000001, -59.99999999999999, cl__1};
Point(44) = {-14.99999999999996, 25.00000000000001, -60.00000000000002, cl__1};
Line(1) = {1, 2};
p2 = newp;
Point(p2 + 1) = {8.299974754062932e-17, 25, -6.889074887131096e-16};
Circle(2) = {2, p2 + 1, 3};
Line(3) = {3, 4};
Line(4) = {4, 5};
Line(5) = {1, 5};
Line(6) = {5, 6};
Line(7) = {7, 6};
Line(8) = {8, 7};
Line(9) = {9, 8};
Line(10) = {10, 9};
p11 = newp;
Point(p11 + 1) = {8.299974754062932e-17, 25, -6.889074887131096e-16};
Circle(11) = {10, p11 + 1, 2};
Line(12) = {12, 11};
p13 = newp;
Point(p13 + 1) = {0, 30, 0};
Circle(13) = {13, p13 + 1, 12};
p14 = newp;
Point(p14 + 1) = {0, 30, 0};
Circle(14) = {14, p14 + 1, 13};
p15 = newp;
Point(p15 + 1) = {0, 30, 0};
Circle(15) = {15, p15 + 1, 14};
p16 = newp;
Point(p16 + 1) = {0, 30, 0};
Circle(16) = {16, p16 + 1, 15};
p17 = newp;
Point(p17 + 1) = {0, 30, 0};
Circle(17) = {17, p17 + 1, 16};
p18 = newp;
Point(p18 + 1) = {0, 30, 0};
Circle(18) = {18, p18 + 1, 17};
p19 = newp;
Point(p19 + 1) = {0, 30, 0};
Circle(19) = {12, p19 + 1, 18};
p20 = newp;
Point(p20 + 1) = {8.299974754062932e-17, 25, -6.889074887131096e-16};
Circle(20) = {11, p20 + 1, 19};
p21 = newp;
Point(p21 + 1) = {8.299974754062932e-17, 25, -6.889074887131096e-16};
Circle(21) = {19, p21 + 1, 20};
p22 = newp;
Point(p22 + 1) = {8.299974754062932e-17, 25, -6.889074887131096e-16};
Circle(22) = {20, p22 + 1, 21};
p23 = newp;
Point(p23 + 1) = {8.299974754062932e-17, 25, -6.889074887131096e-16};
Circle(23) = {21, p23 + 1, 10};
p24 = newp;
Point(p24 + 1) = {8.299974754062932e-17, 25, -6.889074887131096e-16};
Circle(24) = {3, p24 + 1, 11};
Line(25) = {22, 23};
Line(26) = {23, 24};
Line(27) = {25, 24};
Line(28) = {5, 25};
Line(29) = {22, 19};
Line(30) = {26, 27};
Line(31) = {27, 6};
Line(32) = {5, 26};
Line(33) = {28, 7};
Line(34) = {28, 27};
Line(35) = {29, 28};
Line(36) = {29, 8};
Line(37) = {30, 8};
Line(38) = {30, 21};
Line(39) = {31, 32};
Line(40) = {32, 33};
Line(41) = {34, 33};
Line(42) = {26, 34};
Line(43) = {35, 26};
Line(44) = {13, 35};
Line(45) = {31, 18};
Line(46) = {36, 14};
Line(47) = {36, 26};
Line(48) = {37, 29};
Line(49) = {15, 37};
Line(50) = {38, 29};
Line(51) = {38, 16};
Line(52) = {29, 39};
Line(53) = {40, 39};
Line(54) = {32, 40};
Line(55) = {41, 32};
Line(56) = {17, 41};
Line(57) = {20, 42};
Line(58) = {42, 23};
Line(59) = {8, 43};
Line(60) = {44, 43};
Line(61) = {23, 44};
Line(62) = {33, 24};
Line(63) = {32, 23};
Line(64) = {34, 25};
Line(65) = {39, 43};
Line(66) = {40, 44};
Line Loop(1) = {1, 2, 3, 4, -5};
Plane Surface(1) = {1};
Line Loop(2) = {5, 6, -7, -8, -9, -10, 11, -1};
Plane Surface(2) = {2};
Line Loop(3) = {12, 20, 21, 22, 23, 11, 2, 24, -12, -13, -14, -15, -16, -17, -18, -19};
Line Loop(4) = {25, 26, -27, -28, -4, -3, 24, 20, -29};
Plane Surface(4) = {4};
Line Loop(5) = {30, 31, -6, 32};
Plane Surface(5) = {5};
Line Loop(6) = {33, 7, -31, -34};
Plane Surface(6) = {6};
Line Loop(7) = {35, 33, -8, -36};
Plane Surface(7) = {7};
Line Loop(8) = {10, 9, -37, 38, 23};
Plane Surface(8) = {8};
Line Loop(9) = {39, 40, -41, -42, -43, -44, 13, 19, -45};
Plane Surface(9) = {9};
Line Loop(10) = {46, 14, 44, 43, -47};
Plane Surface(10) = {10};
Line Loop(11) = {47, 30, -34, -35, -48, -49, 15, -46};
Plane Surface(11) = {11};
Line Loop(12) = {49, 48, -50, 51, 16};
Plane Surface(12) = {12};
Line Loop(13) = {50, 52, -53, -54, -55, -56, 17, -51};
Plane Surface(13) = {13};
Line Loop(14) = {56, 55, -39, 45, 18};
Plane Surface(14) = {14};
Line Loop(15) = {57, 58, -25, 29, 21};
Plane Surface(15) = {15};
Line Loop(16) = {37, 59, -60, -61, -58, -57, 22, -38};
Plane Surface(16) = {16};
Line Loop(17) = {40, 62, -26, -63};
Plane Surface(17) = {17};
Line Loop(18) = {64, 27, -62, -41};
Plane Surface(18) = {18};
Line Loop(19) = {42, 64, -28, 32};
Plane Surface(19) = {19};
Line Loop(20) = {52, 65, -59, -36};
Plane Surface(20) = {20};
Line Loop(21) = {66, 60, -65, -53};
Plane Surface(21) = {21};
Line Loop(22) = {54, 66, -61, -63};
Plane Surface(22) = {22};
Surface Loop(1) = {1, 2, 3, 4, 5, 6, 7, 8, 9, 10, 11, 12, 13, 14, 15, 16, 17, 18, 19, 20, 21, 22};
Volume(1) = {1};
