DBRep_DrawableShape

CASCADE Topology V1, (c) Matra-Datavision
Locations 3
1
              1               0               0               0 
              0               1               0               0 
              0               0               1               0 
1
              1               0               0             -60 
              0               1               0             -35 
              0               0               1             -35 
2  2 -1 0
Curve2ds 56
1 0 -14.142135623730951 1 0 
1 0 -20 1 0 
1 0 -14.142135623730951 1 0 
1 20 0 0 -1 
1 0 -14.142135623730951 1 0 
1 60 0 0 -1 
1 0 -14.142135623730951 1 0 
1 0 -60 1 0 
1 6.6666666666666679 4.7140452079103179 -0.57735026918962573 0.81649658092772603 
1 6.6666666666666679 4.7140452079103179 -0.57735026918962573 0.81649658092772603 
1 0 14.142135623730951 1 0 
1 0 20 1 0 
1 60.000000000000014 -14.142135623730956 0.57735026918962573 0.81649658092772603 
1 20.000000000000007 -14.142135623730944 -0.57735026918962573 0.81649658092772603 
1 0 14.142135623730951 1 0 
1 20 0 0 1 
1 20.000000000000007 -14.142135623730944 -0.57735026918962573 0.81649658092772603 
1 60.000000000000014 -14.142135623730956 0.57735026918962573 0.81649658092772603 
1 0 14.142135623730951 1 0 
1 20 0 0 1 
1 46.666666666666671 -32.998316455372219 0.57735026918962573 0.81649658092772603 
1 46.666666666666671 -32.998316455372219 0.57735026918962573 0.81649658092772603 
1 0 14.142135623730951 1 0 
1 0 20 1 0 
1 0 0 0 1 
1 0 0 1 0 
1 0 14.142135623730951 1 0 
1 0 100 1 0 
1 80 0 0 1 
1 0 0 1 0 
1 0 0 0 1 
1 0 80 1 0 
1 0 14.142135623730951 1 0 
1 100 0 0 1 
1 80 0 0 1 
1 0 80 1 0 
1 0 14.142135623730951 1 0 
1 100 0 0 1 
1 0 14.142135623730951 1 0 
1 0 100 1 0 
1 6.6666666666666679 4.7140452079103179 -0.57735026918962573 0.81649658092772603 
1 6.6666666666666679 4.7140452079103179 -0.57735026918962573 0.81649658092772603 
1 0 -14.142135623730951 1 0 
1 0 -20 1 0 
1 60.000000000000014 -14.142135623730956 0.57735026918962573 0.81649658092772603 
1 20.000000000000007 -14.142135623730944 -0.57735026918962573 0.81649658092772603 
1 0 -14.142135623730951 1 0 
1 20 0 0 -1 
1 20.000000000000007 -14.142135623730944 -0.57735026918962573 0.81649658092772603 
1 60.000000000000014 -14.142135623730956 0.57735026918962573 0.81649658092772603 
1 0 -14.142135623730951 1 0 
1 60 0 0 -1 
1 46.666666666666671 -32.998316455372219 0.57735026918962573 0.81649658092772603 
1 46.666666666666671 -32.998316455372219 0.57735026918962573 0.81649658092772603 
1 0 -14.142135623730951 1 0 
1 0 -60 1 0 
Curves 28
1 -60 -15 -35 0 0 1 
1 -60 -35 -15 0 1 0 
1 -60 -35 25 0 1 0 
1 -60 25 -35 0 0 1 
8 -23.094010767585029 11.547005383792515
1 -46.666666666666664 -28.333333333333332 -28.333333333333332 0.57735026918962573 -0.57735026918962573 -0.57735026918962573 
1 -40 -35 -35 0 0 1 
8 -2.0511601988091347e-15 34.641016151377542
1 -60 -14.999999999999993 25.000000000000011 0.57735026918962573 -0.57735026918962573 0.57735026918962573 
1 -40 -35 -35 0 1 0 
8 -2.0511601988091347e-15 34.641016151377542
1 -60 25.000000000000011 -14.999999999999993 0.57735026918962573 0.57735026918962573 -0.57735026918962573 
1 -40 -35 45 0 1 0 
8 23.094010767585029 57.735026918962575
1 -73.333333333333343 11.666666666666671 11.666666666666671 0.57735026918962573 0.57735026918962573 0.57735026918962573 
1 -40 45 -35 0 0 1 
1 0 0 0 1 0 -0 
1 40 -35 -35 0 0 1 
1 0 0 80 1 0 -0 
1 0 80 0 1 0 -0 
1 40 -35 -35 0 1 0 
1 0 80 80 1 0 -0 
1 40 -35 45 0 1 0 
1 40 45 -35 0 0 1 
8 -23.094010767585029 11.547005383792515
1 46.666666666666664 -28.333333333333332 -28.333333333333332 -0.57735026918962573 -0.57735026918962573 -0.57735026918962573 
1 60 -15 -35 0 0 1 
8 -2.0511601988091347e-15 34.641016151377542
1 60 -14.999999999999993 25.000000000000011 -0.57735026918962573 -0.57735026918962573 0.57735026918962573 
1 60 -35 -15 0 1 0 
8 -2.0511601988091347e-15 34.641016151377542
1 60 25.000000000000011 -14.999999999999993 -0.57735026918962573 0.57735026918962573 -0.57735026918962573 
1 60 -35 25 0 1 0 
8 23.094010767585029 57.735026918962575
1 73.333333333333343 11.666666666666671 11.666666666666671 -0.57735026918962573 0.57735026918962573 0.57735026918962573 
1 60 25 -35 0 0 1 
Polygon3D 0
PolygonOnTriangulations 56
2 1 2 
p 0.186666669448217 1 20 60 
2 1 3 
p 0.186666669448217 1 20 60 
2 1 3 
p 0.186666669448217 1 20 60 
2 1 3 
p 0.186666669448217 1 20 60 
2 2 4 
p 0.186666669448217 1 20 60 
2 1 3 
p 0.186666669448217 1 20 60 
2 3 4 
p 0.186666669448217 1 20 60 
2 1 3 
p 0.186666669448217 1 20 60 
2 1 2 
p 0.186666669448217 1 -23.094010767585 11.5470053837925 
2 1 2 
p 0.186666669448217 1 -23.094010767585 11.5470053837925 
2 2 4 
p 0.186666669448217 1 0 80 
2 1 3 
p 0.186666669448217 1 0 80 
2 3 4 
p 0.186666669448217 1 -2.05116019880913e-15 34.6410161513775 
2 1 2 
p 0.186666669448217 1 -2.05116019880913e-15 34.6410161513775 
2 2 4 
p 0.186666669448217 1 0 80 
2 3 1 
p 0.186666669448217 1 0 80 
2 3 4 
p 0.186666669448217 1 -2.05116019880913e-15 34.6410161513775 
2 1 2 
p 0.186666669448217 1 -2.05116019880913e-15 34.6410161513775 
2 2 4 
p 0.186666669448217 1 0 80 
2 3 1 
p 0.186666669448217 1 0 80 
2 3 4 
p 0.186666669448217 1 23.094010767585 57.7350269189626 
2 3 4 
p 0.186666669448217 1 23.094010767585 57.7350269189626 
2 2 4 
p 0.186666669448217 1 0 80 
2 1 3 
p 0.186666669448217 1 0 80 
2 1 2 
p 0.186666669448217 1 20 100 
2 3 4 
p 0.186666669448217 1 20 100 
2 2 4 
p 0.186666669448217 1 0 80 
2 2 4 
p 0.186666669448217 1 0 80 
2 3 4 
p 0.186666669448217 1 20 100 
2 3 4 
p 0.186666669448217 1 20 100 
2 1 2 
p 0.186666669448217 1 20 100 
2 1 2 
p 0.186666669448217 1 20 100 
2 4 2 
p 0.186666669448217 1 0 80 
2 2 4 
p 0.186666669448217 1 0 80 
2 1 2 
p 0.186666669448217 1 20 100 
2 3 4 
p 0.186666669448217 1 20 100 
2 4 2 
p 0.186666669448217 1 0 80 
2 2 4 
p 0.186666669448217 1 0 80 
2 2 4 
p 0.186666669448217 1 0 80 
2 2 4 
p 0.186666669448217 1 0 80 
2 1 2 
p 0.186666669448217 1 -23.094010767585 11.5470053837925 
2 1 2 
p 0.186666669448217 1 -23.094010767585 11.5470053837925 
2 1 3 
p 0.186666669448217 1 20 60 
2 1 2 
p 0.186666669448217 1 20 60 
2 3 4 
p 0.186666669448217 1 -2.05116019880913e-15 34.6410161513775 
2 1 2 
p 0.186666669448217 1 -2.05116019880913e-15 34.6410161513775 
2 1 3 
p 0.186666669448217 1 20 60 
2 1 3 
p 0.186666669448217 1 20 60 
2 3 4 
p 0.186666669448217 1 -2.05116019880913e-15 34.6410161513775 
2 1 2 
p 0.186666669448217 1 -2.05116019880913e-15 34.6410161513775 
2 1 3 
p 0.186666669448217 1 20 60 
2 2 4 
p 0.186666669448217 1 20 60 
2 3 4 
p 0.186666669448217 1 23.094010767585 57.7350269189626 
2 3 4 
p 0.186666669448217 1 23.094010767585 57.7350269189626 
2 1 3 
p 0.186666669448217 1 20 60 
2 3 4 
p 0.186666669448217 1 20 60 
Surfaces 14
1 0 0 0 1 0 -0 0 0 1 0 -1 0 
1 -50 -25 -35 -0.70710678118654757 -0.70710678118654757 0 0 0 1 0.70710678118654757 -0.70710678118654757 -0 
1 -50 -35 -25 -0.70710678118654757 0 -0.70710678118654757 0 1 0 0.70710678118654757 0 -0.70710678118654757 
1 -50 -35 35 0.70710678118654757 0 -0.70710678118654757 0 1 0 0.70710678118654757 -0 0.70710678118654757 
1 -50 35 -35 0.70710678118654757 -0.70710678118654757 0 0 0 1 0.70710678118654757 0.70710678118654757 -0 
1 0 0 0 -0 1 0 0 0 1 1 0 -0 
1 0 0 0 0 0 1 1 0 -0 -0 1 0 
1 0 0 80 0 0 1 1 0 -0 -0 1 0 
1 0 80 0 -0 1 0 0 0 1 1 0 -0 
1 50 -25 -35 -0.70710678118654757 0.70710678118654757 0 0 0 1 -0.70710678118654757 -0.70710678118654757 0 
1 50 -35 -25 -0.70710678118654757 0 0.70710678118654757 0 1 0 -0.70710678118654757 0 -0.70710678118654757 
1 50 -35 35 0.70710678118654757 0 0.70710678118654757 -0 1 0 -0.70710678118654757 -0 0.70710678118654757 
1 50 35 -35 0.70710678118654757 0.70710678118654757 0 0 -0 1 -0.70710678118654757 0.70710678118654757 0 
1 120 0 0 1 0 -0 0 0 1 0 -1 0 
Triangulations 14
4 2 1 0.186666669448217
0 20 20 0 20 60 0 60 20 0 60 60 20 -20 60 -20 20 -60 60 -60 2 1 3 2 3 4 
4 2 1 0.186666669448217
-60 -15 -15 -40 -35 -35 -60 -15 25 -40 -35 45 20 -14.142135623731 0 14.142135623731 60 -14.142135623731 80 14.142135623731 4 2 1 4 1 3 
4 2 1 0.186666669448217
-60 -15 -15 -40 -35 -35 -60 25 -15 -40 45 -35 20 -14.142135623731 0 14.142135623731 60 -14.142135623731 80 14.142135623731 4 2 1 4 1 3 
4 2 1 0.186666669448217
-60 -15 25 -40 -35 45 -60 25 25 -40 45 45 20 -14.142135623731 0 14.142135623731 60 -14.142135623731 80 14.142135623731 3 2 1 4 2 3 
4 2 1 0.186666669448217
-60 25 -15 -40 45 -35 -60 25 25 -40 45 45 20 -14.142135623731 0 14.142135623731 60 -14.142135623731 80 14.142135623731 3 2 1 4 2 3 
4 2 1 0.186666669448217
20 0 0 100 0 0 20 0 80 100 0 80 0 20 0 100 80 20 80 100 4 2 1 4 1 3 
4 2 1 0.186666669448217
20 80 0 100 80 0 20 0 0 100 0 0 20 80 100 80 20 0 100 0 2 1 3 2 3 4 
4 2 1 0.186666669448217
20 80 80 100 80 80 20 0 80 100 0 80 20 80 100 80 20 0 100 0 2 1 3 2 3 4 
4 2 1 0.186666669448217
20 80 0 100 80 0 20 80 80 100 80 80 0 20 0 100 80 20 80 100 4 2 1 4 1 3 
4 2 1 0.186666669448217
60 -15 -15 40 -35 -35 60 -15 25 40 -35 45 20 -14.142135623731 0 14.142135623731 60 -14.142135623731 80 14.142135623731 4 2 1 4 1 3 
4 2 1 0.186666669448217
60 -15 -15 40 -35 -35 60 25 -15 40 45 -35 20 -14.142135623731 0 14.142135623731 60 -14.142135623731 80 14.142135623731 4 2 1 4 1 3 
4 2 1 0.186666669448217
60 -15 25 40 -35 45 60 25 25 40 45 45 20 -14.142135623731 0 14.142135623731 60 -14.142135623731 80 14.142135623731 3 2 1 4 2 3 
4 2 1 0.186666669448217
60 25 -15 40 45 -35 60 25 25 40 45 45 20 -14.142135623731 0 14.142135623731 60 -14.142135623731 80 14.142135623731 3 2 1 4 2 3 
4 2 1 0.186666669448217
120 20 20 120 20 60 120 60 20 120 60 60 20 -20 60 -20 20 -60 60 -60 2 1 3 2 3 4 

TShapes 76
Ve
0.0001
-60 -15 -15
0 0

0101101
*
Ve
0.0001
-60 -15 25
0 0

0101101
*
Ed
 1e-07 1 1 0
1  1 0 20 60
2  1 2 0 20 60
2  2 1 2 20 60
6  1 1 2
6  2 2 0
0

0101000
+76 0 -75 0 *
Ve
0.0001
-60 25 -15
0 0

0101101
*
Ed
 1e-07 1 1 0
1  2 0 20 60
2  3 3 0 20 60
2  4 1 2 20 60
6  3 1 2
6  4 3 0
0

0101000
+76 0 -73 0 *
Ve
0.0001
-60 25 25
0 0

0101101
*
Ed
 1e-07 1 1 0
1  3 0 20 60
2  5 4 0 20 60
2  6 1 2 20 60
6  5 1 2
6  6 4 0
0

0101000
+75 0 -71 0 *
Ed
 1e-07 1 1 0
1  4 0 20 60
2  7 5 0 20 60
2  8 1 2 20 60
6  7 1 2
6  8 5 0
0

0101000
+73 0 -71 0 *
Wi

0101100
-74 0 +72 0 -70 0 +69 0 *
Fa
0  1e-07 1 0
2  1
0101000
+68 3 *
Ve
0.0001
-40 -35 -35
0 0

0101101
*
Ed
 1e-07 1 1 0
1  5 0 -23.094010767585 11.5470053837925
2  9 2 0 -23.094010767585 11.5470053837925
2  10 3 0 -23.094010767585 11.5470053837925
6  9 2 0
6  10 3 0
0

0101000
+76 0 -66 0 *
Ve
0.0001
-40 -35 45
0 0

0101101
*
Ed
 1e-07 1 1 0
1  6 0 0 80
2  11 2 0 0 80
2  12 6 2 0 80
6  11 2 0
6  12 6 2
0

0101000
+66 0 -64 0 *
Ed
 1e-07 1 1 0
1  7 0 -2.05116019880913e-15 34.6410161513775
2  13 2 0 -2.05116019880913e-15 34.6410161513775
2  14 4 0 -2.05116019880913e-15 34.6410161513775
6  13 2 0
6  14 4 0
0

0101000
+75 0 -64 0 *
Wi

0101100
-65 0 +74 0 -63 0 +62 0 *
Fa
0  0 2 0
2  2
0101000
+61 0 *
Ve
0.0001
-40 45 -35
0 0

0101101
*
Ed
 1e-07 1 1 0
1  8 0 0 80
2  15 3 0 0 80
2  16 7 2 0 80
6  15 3 0
6  16 7 2
0

0101000
+66 0 -59 0 *
Ed
 1e-07 1 1 0
1  9 0 -2.05116019880913e-15 34.6410161513775
2  17 5 0 -2.05116019880913e-15 34.6410161513775
2  18 3 0 -2.05116019880913e-15 34.6410161513775
6  17 3 0
6  18 5 0
0

0101000
+73 0 -59 0 *
Wi

0101100
-65 0 +72 0 -58 0 +57 0 *
Fa
0  0 3 0
2  3
0101000
+56 0 *
Ve
0.0001
-40 45 45
0 0

0101101
*
Ed
 1e-07 1 1 0
1  10 0 0 80
2  19 4 0 0 80
2  20 8 2 0 80
6  19 4 0
6  20 8 2
0

0101000
+64 0 -54 0 *
Ed
 1e-07 1 1 0
1  11 0 23.094010767585 57.7350269189626
2  21 4 0 23.094010767585 57.7350269189626
2  22 5 0 23.094010767585 57.7350269189626
6  21 4 0
6  22 5 0
0

0101000
+71 0 -54 0 *
Wi

0101100
-62 0 +70 0 -53 0 +52 0 *
Fa
0  0 4 0
2  4
0101000
+51 0 *
Ed
 1e-07 1 1 0
1  12 0 0 80
2  23 5 0 0 80
2  24 9 2 0 80
6  23 5 0
6  24 9 2
0

0101000
+59 0 -54 0 *
Wi

0101100
-57 0 +69 0 -49 0 +52 0 *
Fa
0  0 5 0
2  5
0101000
+48 0 *
Ve
0.0001
40 -35 -35
0 0

0101101
*
Ed
 1e-07 1 1 0
1  13 0 20 100
2  25 6 0 20 100
2  26 7 0 20 100
6  25 6 0
6  26 7 0
0

0101000
+66 3 -46 3 *
Ve
0.0001
40 -35 45
0 0

0101101
*
Ed
 1e-07 1 1 0
1  14 0 0 80
2  27 10 0 0 80
2  28 6 2 0 80
6  27 6 2
6  28 10 0
0

0101000
+46 0 -44 0 *
Ed
 1e-07 1 1 0
1  15 0 20 100
2  29 6 0 20 100
2  30 8 0 20 100
6  29 6 0
6  30 8 0
0

0101000
+64 3 -44 3 *
Wi

0101100
-45 2 +63 0 -43 0 +42 2 *
Fa
0  1e-07 6 0
2  6
0101000
+41 3 *
Ve
0.0001
40 45 -35
0 0

0101101
*
Ed
 1e-07 1 1 0
1  16 0 20 100
2  31 9 0 20 100
2  32 7 0 20 100
6  31 7 0
6  32 9 0
0

0101000
+59 3 -39 3 *
Ed
 1e-07 1 1 0
1  17 0 0 80
2  33 11 0 0 80
2  34 7 2 0 80
6  33 7 2
6  34 11 0
0

0101000
+46 0 -39 0 *
Wi

0101100
-38 2 -58 0 +37 0 +45 2 *
Fa
0  1e-07 7 0
2  7
0101000
+36 3 *
Ve
0.0001
40 45 45
0 0

0101101
*
Ed
 1e-07 1 1 0
1  18 0 20 100
2  35 9 0 20 100
2  36 8 0 20 100
6  35 8 0
6  36 9 0
0

0101000
+54 3 -34 3 *
Ed
 1e-07 1 1 0
1  19 0 0 80
2  37 12 0 0 80
2  38 8 2 0 80
6  37 8 2
6  38 12 0
0

0101000
+44 0 -34 0 *
Wi

0101100
-33 2 -53 0 +32 0 +42 2 *
Fa
0  1e-07 8 0
2  8
0101000
+31 3 *
Ed
 1e-07 1 1 0
1  20 0 0 80
2  39 13 0 0 80
2  40 9 2 0 80
6  39 9 2
6  40 13 0
0

0101000
+39 0 -34 0 *
Wi

0101100
-38 2 +49 0 -29 0 +33 2 *
Fa
0  1e-07 9 0
2  9
0101000
+28 3 *
Ve
0.0001
60 -15 -15
0 0

0101101
*
Ed
 1e-07 1 1 0
1  21 0 -23.094010767585 11.5470053837925
2  41 10 0 -23.094010767585 11.5470053837925
2  42 11 0 -23.094010767585 11.5470053837925
6  41 10 0
6  42 11 0
0

0101000
+26 0 -46 0 *
Ve
0.0001
60 -15 25
0 0

0101101
*
Ed
 1e-07 1 1 0
1  22 0 20 60
2  43 10 0 20 60
2  44 14 2 20 60
6  43 10 0
6  44 14 2
0

0101000
+26 0 -24 0 *
Ed
 1e-07 1 1 0
1  23 0 -2.05116019880913e-15 34.6410161513775
2  45 10 0 -2.05116019880913e-15 34.6410161513775
2  46 12 0 -2.05116019880913e-15 34.6410161513775
6  45 10 0
6  46 12 0
0

0101000
+24 0 -44 0 *
Wi

0101100
-25 0 +23 0 -43 0 +22 0 *
Fa
0  0 10 0
2  10
0101000
+21 0 *
Ve
0.0001
60 25 -15
0 0

0101101
*
Ed
 1e-07 1 1 0
1  24 0 20 60
2  47 11 0 20 60
2  48 14 2 20 60
6  47 11 0
6  48 14 2
0

0101000
+26 0 -19 0 *
Ed
 1e-07 1 1 0
1  25 0 -2.05116019880913e-15 34.6410161513775
2  49 13 0 -2.05116019880913e-15 34.6410161513775
2  50 11 0 -2.05116019880913e-15 34.6410161513775
6  49 11 0
6  50 13 0
0

0101000
+19 0 -39 0 *
Wi

0101100
-25 0 +18 0 -37 0 +17 0 *
Fa
0  0 11 0
2  11
0101000
+16 0 *
Ve
0.0001
60 25 25
0 0

0101101
*
Ed
 1e-07 1 1 0
1  26 0 20 60
2  51 12 0 20 60
2  52 14 2 20 60
6  51 12 0
6  52 14 2
0

0101000
+24 0 -14 0 *
Ed
 1e-07 1 1 0
1  27 0 23.094010767585 57.7350269189626
2  53 12 0 23.094010767585 57.7350269189626
2  54 13 0 23.094010767585 57.7350269189626
6  53 12 0
6  54 13 0
0

0101000
+14 0 -34 0 *
Wi

0101100
-22 0 +13 0 -32 0 +12 0 *
Fa
0  0 12 0
2  12
0101000
+11 0 *
Ed
 1e-07 1 1 0
1  28 0 20 60
2  55 13 0 20 60
2  56 14 2 20 60
6  55 13 0
6  56 14 2
0

0101000
+19 0 -14 0 *
Wi

0101100
-17 0 +9 0 -29 0 +12 0 *
Fa
0  0 13 0
2  13
0101000
+8 0 *
Wi

0101100
-23 0 +18 0 -13 0 +9 0 *
Fa
0  1e-07 14 0
2  14
0101000
+6 3 *
Sh

0101100
-67 2 -60 0 +55 0 -50 0 +47 0 -40 2 -35 2 +30 2 +27 2 +20 0 
-15 0 +10 0 -7 0 +5 2 *
So

0100000
+4 0 *
Co

0100000
+3 0 *
Co

1100000
+2 1 *

+1 0 